<svg width="54" height="63" viewBox="0 0 54 63" fill="none" xmlns="http://www.w3.org/2000/svg">
<path d="M23.6443 44.124C23.4454 44.124 23.2546 44.203 23.114 44.3437C22.9733 44.4843 22.8943 44.6751 22.8943 44.874V45.33C22.8943 45.5289 22.9733 45.7197 23.114 45.8603C23.2546 46.001 23.4454 46.08 23.6443 46.08C23.8432 46.08 24.034 46.001 24.1746 45.8603C24.3153 45.7197 24.3943 45.5289 24.3943 45.33V44.874C24.3943 44.6751 24.3153 44.4843 24.1746 44.3437C24.034 44.203 23.8432 44.124 23.6443 44.124Z" fill="#393939"/>
<path d="M23.6443 47.001C23.4454 47.001 23.2546 47.08 23.114 47.2206C22.9733 47.3613 22.8943 47.5521 22.8943 47.751V56.2316C22.8943 56.4305 22.9733 56.6213 23.114 56.7619C23.2546 56.9026 23.4454 56.9816 23.6443 56.9816C23.8432 56.9816 24.034 56.9026 24.1746 56.7619C24.3153 56.6213 24.3943 56.4305 24.3943 56.2316V47.751C24.3943 47.5521 24.3153 47.3613 24.1746 47.2206C24.034 47.08 23.8432 47.001 23.6443 47.001Z" fill="#393939"/>
<path d="M37.58 11.5603C37.04 10.9323 36.4817 10.2829 35.659 10.0228C34.7829 9.74631 33.9247 9.99556 33.1678 10.2154C32.7172 10.3464 32.2928 10.4692 31.9362 10.4639C31.56 10.4574 31.1059 10.3168 30.6254 10.1678C29.8504 9.92768 28.971 9.65531 28.1342 9.90706C28.0398 9.93541 27.952 9.98207 27.8757 10.0444C27.7995 10.1067 27.7362 10.1834 27.6895 10.2701C27.6429 10.3569 27.6138 10.452 27.6039 10.5499C27.594 10.6479 27.6035 10.7469 27.6319 10.8412C27.6602 10.9356 27.7069 11.0234 27.7692 11.0997C27.8315 11.176 27.9082 11.2392 27.9949 11.2859C28.0817 11.3325 28.1768 11.3616 28.2747 11.3715C28.3727 11.3814 28.4717 11.3719 28.566 11.3436C28.9648 11.2238 29.5832 11.4153 30.1815 11.6007C30.7413 11.7741 31.3203 11.9534 31.91 11.9632C32.4918 11.9747 33.0482 11.8117 33.5863 11.6554C34.1924 11.4794 34.7647 11.3131 35.2079 11.4528C35.6229 11.5838 36.0212 12.0468 36.4428 12.5372L36.4825 12.5834C36.5468 12.6581 36.6251 12.7194 36.713 12.7639C36.801 12.8083 36.8968 12.8349 36.995 12.8423C37.0933 12.8497 37.192 12.8377 37.2856 12.8069C37.3792 12.7761 37.4658 12.7272 37.5405 12.663C37.6152 12.5988 37.6765 12.5204 37.7209 12.4325C37.7653 12.3446 37.792 12.2487 37.7994 12.1505C37.8067 12.0523 37.7947 11.9535 37.7639 11.8599C37.7332 11.7664 37.6843 11.6797 37.62 11.6051L37.58 11.5603Z" fill="#393939"/>
<path d="M11.5511 16.6818C11.7394 16.6177 11.8946 16.4815 11.9824 16.303C12.0703 16.1245 12.0837 15.9185 12.0196 15.7301C11.9555 15.5418 11.8193 15.3867 11.6408 15.2988C11.4623 15.2109 11.2563 15.1976 11.068 15.2616L11.0105 15.2813C10.2262 15.5476 9.41535 15.8233 8.8676 16.4894C8.28397 17.1993 8.19485 18.0881 8.11622 18.8724C8.06935 19.3393 8.0251 19.7803 7.88672 20.1076C7.74022 20.4543 7.4401 20.8229 7.12247 21.2133C6.60997 21.8429 6.0296 22.5565 5.95035 23.4266C5.94143 23.5247 5.95191 23.6236 5.9812 23.7177C6.0105 23.8117 6.05803 23.899 6.12108 23.9747C6.18413 24.0504 6.26147 24.1129 6.34868 24.1587C6.43589 24.2044 6.53126 24.2326 6.62935 24.2415C6.6526 24.2436 6.67535 24.2448 6.69823 24.2448C6.88536 24.2447 7.0657 24.1747 7.20384 24.0484C7.34198 23.9222 7.42794 23.7489 7.44485 23.5625C7.48235 23.1481 7.89122 22.6458 8.2866 22.1599C8.65647 21.7053 9.03897 21.2349 9.26872 20.6918C9.4956 20.1555 9.55335 19.5793 9.60922 19.0219C9.67172 18.394 9.7316 17.8009 10.0268 17.442C10.3032 17.1059 10.8815 16.9094 11.4936 16.7013L11.5511 16.6818Z" fill="#393939"/>
<path d="M14.5523 24.6213C14.3698 24.5423 14.1633 24.539 13.9784 24.6122C13.7934 24.6854 13.6451 24.829 13.566 25.0116C13.3345 25.5459 13.2719 26.1218 13.2114 26.6787C13.143 27.3061 13.0787 27.8986 12.7807 28.2549C12.5013 28.5887 11.9213 28.7799 11.3073 28.9833L11.2495 29.0024C11.1547 29.0322 11.0667 29.0806 10.9907 29.1447C10.9147 29.2088 10.8522 29.2874 10.8069 29.3759C10.7615 29.4644 10.7342 29.5611 10.7266 29.6602C10.7189 29.7593 10.7311 29.859 10.7623 29.9534C10.7935 30.0478 10.8432 30.1351 10.9084 30.2101C10.9737 30.2851 11.0532 30.3464 11.1424 30.3905C11.2315 30.4345 11.3285 30.4603 11.4278 30.4665C11.527 30.4727 11.6265 30.459 11.7204 30.4264L11.7778 30.4076C12.5643 30.1477 13.3778 29.8789 13.9312 29.2173C14.5207 28.5124 14.6173 27.6244 14.7025 26.8409C14.7533 26.3744 14.8013 25.9338 14.9425 25.6076C15.0216 25.425 15.0249 25.2186 14.9517 25.0336C14.8785 24.8487 14.7348 24.7003 14.5523 24.6213Z" fill="#393939"/>
<path d="M27.9648 19.6249C27.4306 19.3935 26.8548 19.3309 26.2978 19.2702C25.6706 19.202 25.0781 19.1376 24.7216 18.8394C24.3876 18.56 24.1966 17.9799 23.9932 17.3657L23.9742 17.3084C23.9439 17.2141 23.8952 17.1268 23.831 17.0515C23.7667 16.9762 23.6882 16.9143 23.6 16.8694C23.5117 16.8246 23.4154 16.7977 23.3167 16.7902C23.218 16.7828 23.1188 16.7949 23.0248 16.826C22.9308 16.8571 22.8439 16.9065 22.7691 16.9713C22.6943 17.0361 22.633 17.1151 22.5889 17.2037C22.5448 17.2924 22.5186 17.3888 22.512 17.4876C22.5053 17.5864 22.5182 17.6855 22.5501 17.7792L22.5688 17.8361C22.8287 18.6229 23.0973 19.4361 23.7592 19.9899C24.4641 20.5796 25.3521 20.6762 26.1357 20.7615C26.6022 20.8122 27.0427 20.8601 27.3689 21.0014C27.5511 21.0783 27.7563 21.0802 27.9398 21.0066C28.1234 20.933 28.2704 20.7899 28.349 20.6084C28.4276 20.4269 28.4313 20.2218 28.3593 20.0376C28.2874 19.8534 28.1456 19.705 27.9648 19.6249Z" fill="#393939"/>
<path d="M51.6304 16.1754C51.5392 15.5856 51.649 14.8927 51.7652 14.1594C51.9459 13.0182 52.1507 11.7247 51.5451 10.5987C50.9576 9.50499 49.7925 8.89112 48.6662 8.29762C47.9392 7.91449 47.2526 7.55262 46.7837 7.09974C46.3356 6.66699 45.9851 6.02937 45.614 5.35424C45.0469 4.32287 44.4041 3.15424 43.239 2.54712C42.1454 1.97787 40.8659 2.07437 39.6284 2.16749C38.7844 2.23099 37.987 2.29099 37.2965 2.14662C36.606 2.00224 35.8995 1.62787 35.1516 1.23149C34.0551 0.650493 32.9239 0.0489932 31.6914 0.132868C30.3806 0.221618 29.3234 1.03537 28.3905 1.75337C27.78 2.22312 27.203 2.66687 26.6195 2.88387C26.0085 3.11087 25.2344 3.16737 24.4149 3.22712C24.0457 3.25412 23.6731 3.28187 23.3059 3.32574C23.012 3.24687 22.7134 3.16162 22.4225 3.07762C20.8871 2.63387 19.2992 2.17499 17.8042 2.59524C16.2105 3.04287 15.1418 4.28912 14.1085 5.49449C13.4376 6.27699 12.8038 7.01624 12.0808 7.47149C11.3273 7.94574 10.3308 8.23112 9.276 8.53324C7.701 8.98424 6.07325 9.45062 5.06862 10.6445C4.03787 11.8695 3.95912 13.4741 3.88287 15.026C3.83412 16.0197 3.78812 16.9585 3.49925 17.7274C3.22425 18.4589 2.6455 19.201 2.03238 19.9867C1.03313 21.2672 0 22.5914 0 24.2141C0 25.8369 1.03313 27.161 2.03238 28.4415C2.64488 29.2272 3.22462 29.9694 3.49925 30.7009C3.78812 31.4696 3.83412 32.4084 3.88275 33.4021C3.959 34.954 4.03775 36.5586 5.06862 37.7837C6.07312 38.9776 7.70138 39.444 9.276 39.8949C10.3309 40.1971 11.3273 40.4824 12.0808 40.9574C12.8038 41.4126 13.4375 42.1517 14.1085 42.9344C15.1419 44.1396 16.2104 45.386 17.8042 45.8336C18.2174 45.9464 18.6442 46.0019 19.0725 45.9984C19.5434 45.9935 20.0128 45.9441 20.4744 45.8507L20.6527 54.8865C20.6707 56.1802 20.6071 57.4737 20.4622 58.7594L20.3684 59.5893L20.3636 59.6736C20.3636 61.4692 22.6169 62.8758 25.4934 62.8758C28.3699 62.8758 30.6232 61.4692 30.6232 59.6736L30.3161 54.2273C30.2717 53.4424 30.2572 52.6445 30.2735 51.8561L30.3994 45.8295C30.8963 45.9369 31.4028 45.994 31.9112 46C32.3407 46.0032 32.7685 45.9472 33.1826 45.8336C34.7764 45.3861 35.8451 44.1397 36.8784 42.9344C37.5492 42.1519 38.1831 41.4126 38.9061 40.9575C39.6596 40.4825 40.6561 40.1978 41.7109 39.895C43.2859 39.444 44.9136 38.9776 45.9182 37.7839C46.9491 36.5589 47.0277 34.9541 47.104 33.4024C47.1482 32.4971 47.1927 31.6392 47.4181 30.9122C48.3104 30.1186 48.6235 28.9232 48.9004 27.8622C49.0879 27.1436 49.2649 26.4649 49.5846 25.9611C49.8884 25.4822 50.425 25.0284 50.9931 24.5477C51.9147 23.7681 52.9595 22.8845 53.2247 21.6156C53.49 20.3467 52.8872 19.1187 52.3549 18.0352C52.0267 17.367 51.7169 16.736 51.6304 16.1754ZM29.019 40.071L28.7736 51.8248C28.7568 52.6518 28.7719 53.4885 28.8185 54.3123L29.1229 59.6909C29.1011 60.4899 27.5561 61.3759 25.4932 61.3759C23.445 61.3759 21.9074 60.5025 21.8645 59.7079L21.952 58.928C22.1042 57.578 22.171 56.2198 22.152 54.8614L21.936 43.9004C21.9204 43.0947 21.7311 42.3018 21.381 41.576C21.0309 40.8502 20.5282 40.2085 19.9072 39.6949L14.1369 34.9189C14.7869 34.648 15.4292 34.3075 15.9379 33.7845L20.2879 35.8629C20.509 35.9685 20.7535 36.0162 20.9981 36.0015C21.2428 35.9867 21.4797 35.91 21.6866 35.7785C21.8934 35.6469 22.0634 35.465 22.1806 35.2497C22.2978 35.0344 22.3583 34.7929 22.3565 34.5477L22.3151 31.6221C22.4746 31.58 22.6309 31.5346 22.7829 31.4907C23.2322 31.3601 23.6607 31.239 24.0117 31.2424L24.806 34.4799C24.8704 34.7496 25.0118 34.9949 25.213 35.1857C25.4142 35.3766 25.6666 35.5048 25.9394 35.5549C26.031 35.5725 26.1242 35.5814 26.2175 35.5814C26.4473 35.5815 26.6738 35.5262 26.8777 35.4201C27.0816 35.314 27.2569 35.1602 27.3886 34.9719L32.4426 27.8552C32.8587 27.7278 33.289 27.6522 33.7236 27.6302C33.739 27.6302 33.755 27.6314 33.7704 27.6314L30.9025 32.9379C29.7193 35.1331 29.0738 37.5778 29.019 40.071ZM25.6526 31.6379C26.1201 31.7938 26.6075 31.8818 27.1 31.8991C27.3362 31.9006 27.5713 31.8684 27.7984 31.8034L26.2339 34.0064L25.6526 31.6379ZM51.7564 21.3079C51.5966 22.0717 50.8329 22.7177 50.0242 23.4017C49.3951 23.934 48.7445 24.4844 48.3179 25.1566C47.8724 25.8586 47.6571 26.6844 47.4489 27.4829C47.1945 28.4579 46.9545 29.3785 46.3464 29.8555C45.7295 30.3395 44.6964 30.4149 43.6034 30.4946C42.7151 30.5595 41.7967 30.6265 40.9855 30.9279C40.799 30.9971 40.6477 31.1376 40.5649 31.3185C40.482 31.4993 40.4743 31.7057 40.5436 31.8921C40.6129 32.0786 40.7534 32.2299 40.9342 32.3128C41.1151 32.3956 41.3214 32.4033 41.5079 32.334C42.1189 32.1069 42.893 32.0504 43.7125 31.9906C44.3883 31.9591 45.0605 31.8745 45.723 31.7374C45.6579 32.2646 45.6315 32.8011 45.6056 33.3288C45.5386 34.6921 45.4755 35.9799 44.7704 36.8179C44.0605 37.6615 42.7185 38.0459 41.2977 38.4529C40.1884 38.7706 39.0411 39.0991 38.1069 39.6874C37.1919 40.2634 36.4535 41.1249 35.7395 41.9572C34.8105 43.0407 33.9332 44.064 32.777 44.3887C32.0629 44.5887 31.2442 44.488 30.4311 44.3013L30.5186 40.1022C30.5682 37.8472 31.152 35.636 32.2221 33.6504L35.3215 27.9146C35.4377 27.9475 35.5547 27.9812 35.6736 28.0157C36.7544 28.3297 37.9792 28.6855 39.182 28.3062C40.3105 27.9504 41.1101 27.0205 41.8834 26.1214C42.4069 25.5126 42.9012 24.9377 43.4584 24.573C43.5415 24.5194 43.6132 24.4499 43.6694 24.3685C43.7256 24.2871 43.7651 24.1953 43.7856 24.0986C43.8062 24.0018 43.8074 23.9019 43.7892 23.8047C43.771 23.7075 43.7338 23.6148 43.6797 23.532C43.6255 23.4493 43.5555 23.378 43.4737 23.3224C43.3919 23.2668 43.2999 23.2279 43.203 23.208C43.1062 23.1881 43.0063 23.1875 42.9092 23.2063C42.8121 23.2252 42.7197 23.263 42.6372 23.3177C41.902 23.7986 41.314 24.4822 40.7456 25.1434C40.08 25.9172 39.4514 26.6482 38.7302 26.8756C37.961 27.1184 37.0527 26.8545 36.0916 26.5756C35.3142 26.3497 34.5122 26.1152 33.6964 26.1304C32.8677 26.1447 32.0281 26.4054 31.2161 26.6564C30.225 26.9632 29.289 27.2531 28.5851 27.0416C28.3946 26.9844 28.1892 27.0051 28.014 27.0993C27.8388 27.1935 27.7082 27.3534 27.6509 27.5439C27.5937 27.7344 27.6144 27.9399 27.7086 28.1151C27.8028 28.2903 27.9628 28.4209 28.1532 28.4781C28.4683 28.5708 28.7952 28.6167 29.1236 28.6141C29.4662 28.6102 29.8076 28.5725 30.1427 28.5016L28.3472 31.0299C28.34 30.9174 28.3074 30.808 28.2519 30.7099C28.1964 30.6118 28.1194 30.5275 28.0267 30.4633C27.9341 30.3991 27.8281 30.3567 27.7167 30.3392C27.6054 30.3218 27.4915 30.3297 27.3836 30.3625C26.9848 30.4824 26.3662 30.2906 25.768 30.1052C25.2082 29.9319 24.6292 29.7526 24.0395 29.7427C23.4587 29.7325 22.9014 29.8941 22.3632 30.0504C21.757 30.2264 21.1844 30.3925 20.7416 30.253C20.3266 30.1221 19.9284 29.659 19.5067 29.1687L19.467 29.1225C19.4028 29.0478 19.3244 28.9865 19.2365 28.9421C19.1486 28.8977 19.0527 28.871 18.9545 28.8636C18.8563 28.8562 18.7575 28.8683 18.6639 28.899C18.5704 28.9298 18.4838 28.9787 18.4091 29.0429C18.3344 29.1072 18.2731 29.1855 18.2286 29.2734C18.1842 29.3614 18.1576 29.4572 18.1502 29.5554C18.1428 29.6537 18.1548 29.7524 18.1856 29.846C18.2164 29.9396 18.2653 30.0262 18.3295 30.1009L18.369 30.1466C18.909 30.7746 19.4674 31.4241 20.29 31.6835C20.4612 31.737 20.6374 31.7728 20.8159 31.7902L20.8534 34.4671L16.7267 32.4975C17.0006 31.7361 17.0676 30.8889 17.1321 30.061C17.1456 29.8881 17.1591 29.7149 17.1745 29.5422C17.1847 29.4435 17.1751 29.3436 17.1464 29.2486C17.1176 29.1535 17.0703 29.0651 17.0071 28.9884C16.944 28.9118 16.8662 28.8485 16.7784 28.8022C16.6905 28.7558 16.5944 28.7274 16.4954 28.7185C16.3965 28.7096 16.2968 28.7205 16.2021 28.7505C16.1075 28.7804 16.0197 28.8289 15.9439 28.8931C15.8681 28.9572 15.8058 29.0358 15.7606 29.1243C15.7154 29.2127 15.6882 29.3092 15.6806 29.4082C15.6645 29.5866 15.6506 29.7657 15.6366 29.9445C15.5572 30.9624 15.4824 31.9236 15.0352 32.5334C14.558 33.184 13.6699 33.5084 12.7294 33.851C11.9689 34.1284 11.1824 34.4152 10.5342 34.9079C10.4553 34.9673 10.3889 35.0417 10.3388 35.1269C10.2886 35.212 10.2559 35.3062 10.2423 35.4041C10.2287 35.502 10.2346 35.6015 10.2596 35.6971C10.2846 35.7927 10.3283 35.8824 10.3881 35.9611C10.4479 36.0397 10.5226 36.1058 10.608 36.1555C10.6934 36.2052 10.7878 36.2375 10.8858 36.2506C10.9837 36.2637 11.0832 36.2573 11.1787 36.2318C11.2742 36.2063 11.3636 36.1622 11.442 36.102C11.7758 35.8655 12.1393 35.6738 12.523 35.5319L18.9502 40.8504C19.4051 41.2265 19.7733 41.6963 20.0298 42.2279C20.2862 42.7594 20.4249 43.3401 20.4362 43.9301L20.4441 44.3257C19.6941 44.4901 18.8979 44.5824 18.2097 44.3891C17.0534 44.0641 16.176 43.041 15.2473 41.9576C14.533 41.1254 13.7948 40.2637 12.8798 39.6879C11.9455 39.1004 10.7984 38.7711 9.68887 38.4534C8.268 38.0465 6.92637 37.6621 6.21612 36.8184C5.511 35.9809 5.44787 34.6926 5.381 33.3291C5.32875 32.2639 5.27462 31.1624 4.90337 30.1739C4.54812 29.2279 3.87037 28.3592 3.21487 27.5192C2.33287 26.389 1.49987 25.3214 1.49987 24.2146C1.49987 23.1079 2.33287 22.0402 3.21487 20.91C3.87037 20.07 4.54812 19.2014 4.90337 18.2552C5.27462 17.2669 5.32837 16.1652 5.381 15.1C5.44787 13.7366 5.51112 12.4487 6.21612 11.6107C6.92612 10.767 8.268 10.3827 9.689 9.97587C10.7984 9.65812 11.9455 9.32949 12.8798 8.74137C13.7948 8.16524 14.533 7.30387 15.2471 6.47137C16.176 5.38799 17.0535 4.36462 18.2096 4.03987C18.9846 3.82187 19.8809 3.95549 20.8385 4.19649C19.8456 4.98662 19.5168 6.24524 19.2267 7.35687C19.0392 8.07549 18.8622 8.75412 18.5426 9.25812C18.2387 9.73687 17.7021 10.1907 17.134 10.6714C16.2124 11.451 15.1678 12.3345 14.9024 13.6035C14.637 14.8725 15.2399 16.1004 15.7724 17.1839C16.1004 17.8519 16.4099 18.4827 16.4974 19.0431C16.5885 19.633 16.4788 20.3257 16.3625 21.0592C16.1819 22.2004 15.977 23.4937 16.5825 24.6199C17.1707 25.7136 18.3354 26.3274 19.4615 26.9209C20.1885 27.304 20.8751 27.6659 21.344 28.1186C21.4871 28.2568 21.6792 28.3325 21.8781 28.329C22.077 28.3255 22.2663 28.2432 22.4045 28.1001C22.5427 27.957 22.6184 27.7649 22.6149 27.566C22.6114 27.3672 22.5291 27.1778 22.386 27.0396C21.7634 26.4385 20.9485 26.0091 20.161 25.5939C19.1911 25.0827 18.2751 24.6 17.9036 23.9095C17.5378 23.2289 17.6866 22.289 17.8442 21.2939C17.9734 20.4787 18.1068 19.636 17.98 18.8142C17.8584 18.0267 17.4827 17.2624 17.1196 16.5227C16.6528 15.5727 16.2117 14.6742 16.3715 13.9102C16.5312 13.1462 17.2947 12.5004 18.1029 11.8164C18.732 11.2842 19.3826 10.7339 19.8092 10.0615C20.2547 9.35949 20.4701 8.53374 20.6784 7.73512C20.9326 6.76012 21.1727 5.83949 21.7807 5.36249C22.3977 4.87862 23.4307 4.80324 24.5239 4.72349C25.4121 4.65862 26.3305 4.59162 27.1419 4.29024C27.9384 3.99424 28.6331 3.45949 29.3051 2.94237C30.1434 2.29724 30.9353 1.68774 31.7926 1.62987C32.5975 1.57524 33.496 2.05249 34.4489 2.55737C35.256 2.98512 36.0906 3.42762 36.9892 3.61537C37.8879 3.80312 38.8294 3.73237 39.7406 3.66374C40.8156 3.58262 41.8316 3.50624 42.546 3.87824C43.3085 4.27499 43.7896 5.15049 44.2992 6.07749C44.7079 6.82049 45.1302 7.58899 45.7415 8.17924C46.364 8.78049 47.179 9.20987 47.9665 9.62512C48.9362 10.1362 49.8524 10.619 50.2237 11.3096C50.5896 11.9902 50.4409 12.9301 50.2832 13.9251C50.1541 14.7402 50.0207 15.5831 50.1475 16.4047C50.269 17.1922 50.6446 17.9566 51.0079 18.6964C51.4751 19.6466 51.916 20.5441 51.7564 21.3079Z" fill="#393939"/>
</svg>
