<svg width="631" height="15" viewBox="0 0 631 15" fill="none" xmlns="http://www.w3.org/2000/svg">
<path d="M6.91406 6.57812H2.5625V10.3438H3.44531C3.60156 10.3438 3.71354 10.375 3.78125 10.4375C3.84896 10.4948 3.88281 10.5729 3.88281 10.6719C3.88281 10.7656 3.84896 10.8438 3.78125 10.9062C3.71354 10.9688 3.60156 11 3.44531 11H1.16406C1.00781 11 0.895833 10.9688 0.828125 10.9062C0.760417 10.8438 0.726562 10.7656 0.726562 10.6719C0.726562 10.5729 0.760417 10.4948 0.828125 10.4375C0.895833 10.375 1.00781 10.3438 1.16406 10.3438H1.90625V2.51562H1.5C1.33854 2.51562 1.22396 2.48698 1.15625 2.42969C1.08854 2.36719 1.05469 2.28646 1.05469 2.1875C1.05469 2.08854 1.08854 2.01042 1.15625 1.95312C1.22396 1.89062 1.33854 1.85938 1.5 1.85938H3.44531C3.60156 1.85938 3.71354 1.89062 3.78125 1.95312C3.84896 2.01042 3.88281 2.08854 3.88281 2.1875C3.88281 2.28646 3.84896 2.36719 3.78125 2.42969C3.71354 2.48698 3.60156 2.51562 3.44531 2.51562H2.5625V5.92188H6.91406V2.51562H6.03906C5.88281 2.51562 5.77083 2.48698 5.70312 2.42969C5.63542 2.36719 5.60156 2.28646 5.60156 2.1875C5.60156 2.08854 5.63281 2.01042 5.69531 1.95312C5.76302 1.89062 5.8776 1.85938 6.03906 1.85938H7.98438C8.14583 1.85938 8.26042 1.89062 8.32812 1.95312C8.39583 2.01042 8.42969 2.08854 8.42969 2.1875C8.42969 2.28646 8.39583 2.36719 8.32812 2.42969C8.26042 2.48698 8.14583 2.51562 7.98438 2.51562H7.57812V10.3438H8.32031C8.47656 10.3438 8.58854 10.375 8.65625 10.4375C8.72396 10.4948 8.75781 10.5729 8.75781 10.6719C8.75781 10.7656 8.72396 10.8438 8.65625 10.9062C8.58854 10.9688 8.47656 11 8.32031 11H6.03906C5.88281 11 5.77083 10.9688 5.70312 10.9062C5.63542 10.8438 5.60156 10.7656 5.60156 10.6719C5.60156 10.5729 5.63281 10.4948 5.69531 10.4375C5.76302 10.375 5.8776 10.3438 6.03906 10.3438H6.91406V6.57812ZM18.3125 6.45312C18.3125 7.32812 18.1354 8.14062 17.7812 8.89062C17.4271 9.63542 16.9375 10.2161 16.3125 10.6328C15.6927 11.0495 15.026 11.2578 14.3125 11.2578C13.2552 11.2578 12.3229 10.8099 11.5156 9.91406C10.7135 9.01302 10.3125 7.85938 10.3125 6.45312C10.3125 5.04167 10.7135 3.88802 11.5156 2.99219C12.3229 2.09635 13.2552 1.64844 14.3125 1.64844C15.026 1.64844 15.6927 1.85677 16.3125 2.27344C16.9323 2.6901 17.4193 3.27083 17.7734 4.01562C18.1328 4.76042 18.3125 5.57292 18.3125 6.45312ZM17.6484 6.45312C17.6484 5.38542 17.3385 4.42708 16.7188 3.57812C16.099 2.72917 15.2969 2.30469 14.3125 2.30469C13.3906 2.30469 12.6016 2.71094 11.9453 3.52344C11.2943 4.33073 10.9688 5.30729 10.9688 6.45312C10.9688 7.67188 11.3099 8.66927 11.9922 9.44531C12.6797 10.2161 13.4531 10.6016 14.3125 10.6016C15.2969 10.6016 16.099 10.1797 16.7188 9.33594C17.3385 8.48698 17.6484 7.52604 17.6484 6.45312ZM27.0625 5.92969H22.9531C22.6562 5.92969 22.5078 6.03125 22.5078 6.23438C22.5078 6.46875 22.6562 6.58594 22.9531 6.58594H27.0625V6.96875C27.0625 7.84375 26.7318 8.66927 26.0703 9.44531C25.4141 10.2161 24.5677 10.6016 23.5312 10.6016C22.4896 10.6016 21.5547 10.1094 20.7266 9.125C20.638 9.01562 20.5391 8.96094 20.4297 8.96094C20.2214 8.96094 20.1172 9.0625 20.1172 9.26562C20.1172 9.52083 20.4635 9.91667 21.1562 10.4531C21.849 10.9896 22.6406 11.2578 23.5312 11.2578C24.6771 11.2578 25.6615 10.8073 26.4844 9.90625C27.3073 9.00521 27.7188 8.05729 27.7188 7.0625V5.72656C27.7188 4.72135 27.362 3.79167 26.6484 2.9375C25.9349 2.07812 24.9922 1.64844 23.8203 1.64844C22.737 1.64844 21.8047 2.01823 21.0234 2.75781V2.29688C21.0234 2.00521 20.9141 1.85938 20.6953 1.85938C20.4766 1.85938 20.3672 2.00521 20.3672 2.29688V4.11719C20.3672 4.41406 20.4766 4.5625 20.6953 4.5625C20.8984 4.5625 21.0078 4.42969 21.0234 4.16406C21.0547 3.66406 21.3568 3.22917 21.9297 2.85938C22.5078 2.48958 23.1354 2.30469 23.8125 2.30469C24.2812 2.30469 24.75 2.41406 25.2188 2.63281C25.6927 2.85156 26.1172 3.27344 26.4922 3.89844C26.8724 4.52344 27.0625 5.13281 27.0625 5.72656V5.92969ZM36.8516 2.49219C36.4818 2.49219 36.1927 2.57031 35.9844 2.72656C35.7812 2.8776 35.4531 3.34115 35 4.11719C34.3281 5.27344 33.8698 5.90625 33.625 6.01562C34.276 6.27604 34.8776 6.95312 35.4297 8.04688L36.5938 10.3438H37.5625C37.9271 10.3438 38.1094 10.4531 38.1094 10.6719C38.1094 10.8906 37.9271 11 37.5625 11H36.6172C36.4089 11 36.2786 10.9844 36.2266 10.9531C36.1745 10.9219 36.099 10.8125 36 10.625L34.8281 8.32812C34.4271 7.54167 34.0391 7.02865 33.6641 6.78906C33.2943 6.54948 32.8047 6.42969 32.1953 6.42969H31.6953V10.3438H32.5469C32.9167 10.3438 33.1016 10.4531 33.1016 10.6719C33.1016 10.8906 32.9167 11 32.5469 11H30.1953C29.8307 11 29.6484 10.8906 29.6484 10.6719C29.6484 10.4531 29.8307 10.3438 30.1953 10.3438H31.0312V2.51562H30.1953C29.8307 2.51562 29.6484 2.40625 29.6484 2.1875C29.6484 1.96875 29.8307 1.85938 30.1953 1.85938H32.5469C32.9167 1.85938 33.1016 1.96875 33.1016 2.1875C33.1016 2.40625 32.9167 2.51562 32.5469 2.51562H31.6953V5.75781H32.1953C32.6693 5.75781 33.026 5.65365 33.2656 5.44531C33.5104 5.23177 33.8932 4.68229 34.4141 3.79688C34.8984 2.97917 35.276 2.45052 35.5469 2.21094C35.8229 1.97135 36.2682 1.85156 36.8828 1.85156C37.1797 1.85156 37.3594 1.88542 37.4219 1.95312C37.4844 2.02083 37.5156 2.17188 37.5156 2.40625V3.27344C37.5156 3.63281 37.4062 3.8125 37.1875 3.8125C36.9635 3.8125 36.8516 3.64323 36.8516 3.30469V2.49219ZM46.0156 2.75781V2.29688C46.0156 2.14062 46.0443 2.02865 46.1016 1.96094C46.1641 1.89323 46.2448 1.85938 46.3438 1.85938C46.4427 1.85938 46.5208 1.89323 46.5781 1.96094C46.6406 2.02865 46.6719 2.14062 46.6719 2.29688V4.11719C46.6719 4.27865 46.6406 4.39323 46.5781 4.46094C46.5208 4.52865 46.4427 4.5625 46.3438 4.5625C46.2552 4.5625 46.1797 4.53125 46.1172 4.46875C46.0599 4.40625 46.026 4.30469 46.0156 4.16406C45.9896 3.72656 45.7526 3.33854 45.3047 3C44.7005 2.53646 44.013 2.30469 43.2422 2.30469C42.737 2.30469 42.2604 2.41667 41.8125 2.64062C41.4792 2.80208 41.2135 3 41.0156 3.23438C40.6719 3.64062 40.3984 4.09115 40.1953 4.58594C40.0495 4.95052 39.9766 5.36198 39.9766 5.82031V6.96875C39.9766 7.94792 40.3307 8.79948 41.0391 9.52344C41.7474 10.2422 42.5703 10.6016 43.5078 10.6016C44.0703 10.6016 44.5729 10.4792 45.0156 10.2344C45.4635 9.98958 45.8958 9.61979 46.3125 9.125C46.401 9.01562 46.5 8.96094 46.6094 8.96094C46.7031 8.96094 46.7786 8.98958 46.8359 9.04688C46.8932 9.10417 46.9219 9.17708 46.9219 9.26562C46.9219 9.38542 46.8099 9.56771 46.5859 9.8125C46.1589 10.2917 45.6771 10.6536 45.1406 10.8984C44.6094 11.138 44.0703 11.2578 43.5234 11.2578C43.0495 11.2578 42.5677 11.1667 42.0781 10.9844C41.7031 10.8438 41.3932 10.6797 41.1484 10.4922C40.9036 10.3047 40.6016 9.98958 40.2422 9.54688C39.888 9.09896 39.6458 8.6875 39.5156 8.3125C39.3854 7.93229 39.3203 7.51562 39.3203 7.0625V5.72656C39.3203 5.08073 39.4922 4.42188 39.8359 3.75C40.1849 3.07292 40.6589 2.55469 41.2578 2.19531C41.862 1.83073 42.5156 1.64844 43.2188 1.64844C44.3021 1.64844 45.2344 2.01823 46.0156 2.75781ZM52.6016 9.11719H52.8828C53.1745 9.11719 53.4245 9.22135 53.6328 9.42969C53.8411 9.63281 53.9453 9.88021 53.9453 10.1719C53.9453 10.474 53.8385 10.7266 53.625 10.9297C53.4167 11.1328 53.1693 11.2344 52.8828 11.2344H52.6016C52.3099 11.2344 52.0599 11.1328 51.8516 10.9297C51.6432 10.7214 51.5391 10.4714 51.5391 10.1797C51.5391 9.8776 51.6432 9.625 51.8516 9.42188C52.0651 9.21875 52.3151 9.11719 52.6016 9.11719ZM69.1562 10.3438V2.51562H68.2734C68.1172 2.51562 68.0052 2.48698 67.9375 2.42969C67.8698 2.36719 67.8359 2.28646 67.8359 2.1875C67.8359 2.08854 67.8698 2.01042 67.9375 1.95312C68.0052 1.89062 68.1172 1.85938 68.2734 1.85938H72.3984C73.2161 1.85938 73.8802 2.09635 74.3906 2.57031C74.9062 3.03906 75.1641 3.59115 75.1641 4.22656C75.1641 5.02865 74.7344 5.67708 73.875 6.17188C74.5573 6.41667 75.0573 6.74219 75.375 7.14844C75.6927 7.55469 75.8516 8.0026 75.8516 8.49219C75.8516 8.92969 75.7474 9.33073 75.5391 9.69531C75.3307 10.0547 75.0104 10.362 74.5781 10.6172C74.151 10.8724 73.6849 11 73.1797 11H68.2734C68.1172 11 68.0052 10.9688 67.9375 10.9062C67.8698 10.8438 67.8359 10.7656 67.8359 10.6719C67.8359 10.5729 67.8698 10.4948 67.9375 10.4375C68.0052 10.375 68.1172 10.3438 68.2734 10.3438H69.1562ZM69.8125 5.92188H72.1328C72.6276 5.92188 73.0807 5.83073 73.4922 5.64844C73.8099 5.5026 74.0573 5.29167 74.2344 5.01562C74.4115 4.73958 74.5 4.45833 74.5 4.17188C74.5 3.76042 74.3073 3.38281 73.9219 3.03906C73.5365 2.6901 73.0339 2.51562 72.4141 2.51562H69.8125V5.92188ZM69.8125 10.3438H73.1328C73.5547 10.3438 73.9219 10.25 74.2344 10.0625C74.5469 9.875 74.7839 9.64323 74.9453 9.36719C75.1068 9.09115 75.1875 8.80469 75.1875 8.50781C75.1875 8.17448 75.0703 7.85156 74.8359 7.53906C74.6068 7.22656 74.2865 6.98958 73.875 6.82812C73.4635 6.66667 72.8958 6.58594 72.1719 6.58594H69.8125V10.3438ZM84.3047 4.89844V4.67969C84.3047 4.51823 84.3359 4.40365 84.3984 4.33594C84.4609 4.26823 84.5391 4.23438 84.6328 4.23438C84.7318 4.23438 84.8125 4.26823 84.875 4.33594C84.9375 4.40365 84.9688 4.51823 84.9688 4.67969V6.16406C84.9635 6.32552 84.9297 6.4401 84.8672 6.50781C84.8099 6.57552 84.7318 6.60938 84.6328 6.60938C84.5443 6.60938 84.4688 6.58073 84.4062 6.52344C84.349 6.46094 84.3151 6.35938 84.3047 6.21875C84.2734 5.84896 84.0286 5.4974 83.5703 5.16406C83.1172 4.83073 82.5052 4.66406 81.7344 4.66406C80.7604 4.66406 80.0208 4.96875 79.5156 5.57812C79.0104 6.1875 78.7578 6.88542 78.7578 7.67188C78.7578 8.52083 79.0365 9.22135 79.5938 9.77344C80.151 10.3255 80.8724 10.6016 81.7578 10.6016C82.2682 10.6016 82.7865 10.5078 83.3125 10.3203C83.8438 10.1328 84.3229 9.83073 84.75 9.41406C84.8594 9.3099 84.9557 9.25781 85.0391 9.25781C85.1276 9.25781 85.2005 9.28906 85.2578 9.35156C85.3203 9.40885 85.3516 9.48177 85.3516 9.57031C85.3516 9.79427 85.0885 10.0781 84.5625 10.4219C83.7135 10.9792 82.7682 11.2578 81.7266 11.2578C80.6693 11.2578 79.7995 10.9219 79.1172 10.25C78.4401 9.57292 78.1016 8.71615 78.1016 7.67969C78.1016 6.6224 78.4479 5.74479 79.1406 5.04688C79.8385 4.34896 80.7161 4 81.7734 4C82.7786 4 83.6224 4.29948 84.3047 4.89844ZM94.7266 7.77344H88.0391C88.1536 8.6224 88.5078 9.30729 89.1016 9.82812C89.7005 10.3438 90.4401 10.6016 91.3203 10.6016C91.8099 10.6016 92.3229 10.5208 92.8594 10.3594C93.3958 10.1979 93.8333 9.98438 94.1719 9.71875C94.2708 9.64062 94.3568 9.60156 94.4297 9.60156C94.513 9.60156 94.5859 9.63542 94.6484 9.70312C94.7109 9.76562 94.7422 9.84115 94.7422 9.92969C94.7422 10.0182 94.7005 10.1042 94.6172 10.1875C94.3672 10.4479 93.9219 10.6927 93.2812 10.9219C92.6458 11.1458 91.9922 11.2578 91.3203 11.2578C90.1953 11.2578 89.2552 10.8906 88.5 10.1562C87.75 9.41667 87.375 8.52344 87.375 7.47656C87.375 6.52344 87.7266 5.70573 88.4297 5.02344C89.138 4.34115 90.013 4 91.0547 4C92.1276 4 93.0104 4.35156 93.7031 5.05469C94.3958 5.7526 94.737 6.65885 94.7266 7.77344ZM94.0625 7.10938C93.9323 6.38542 93.5885 5.79688 93.0312 5.34375C92.4792 4.89062 91.8203 4.66406 91.0547 4.66406C90.2891 4.66406 89.6302 4.88802 89.0781 5.33594C88.526 5.78385 88.1823 6.375 88.0469 7.10938H94.0625ZM112.523 4.89844H108.266V10.3438H109.008C109.299 10.3438 109.445 10.4531 109.445 10.6719C109.445 10.8906 109.299 11 109.008 11H106.867C106.576 11 106.43 10.8906 106.43 10.6719C106.43 10.4531 106.576 10.3438 106.867 10.3438H107.609V4.89844H107.102C106.81 4.89844 106.664 4.78906 106.664 4.57031C106.664 4.34635 106.81 4.23438 107.102 4.23438H113.688C113.979 4.23438 114.125 4.34635 114.125 4.57031C114.125 4.78906 113.979 4.89844 113.688 4.89844H113.18V10.3438H113.922C114.214 10.3438 114.359 10.4531 114.359 10.6719C114.359 10.8906 114.214 11 113.922 11H111.781C111.49 11 111.344 10.8906 111.344 10.6719C111.344 10.4531 111.49 10.3438 111.781 10.3438H112.523V4.89844ZM117.531 4.23438V5.42969C117.922 4.95573 118.341 4.59896 118.789 4.35938C119.237 4.11979 119.766 4 120.375 4C121.021 4 121.617 4.15104 122.164 4.45312C122.711 4.75521 123.133 5.17708 123.43 5.71875C123.732 6.25521 123.883 6.82031 123.883 7.41406C123.883 8.35677 123.544 9.16406 122.867 9.83594C122.195 10.5026 121.367 10.8359 120.383 10.8359C119.211 10.8359 118.26 10.3594 117.531 9.40625V13.3594H119.125C119.281 13.3594 119.393 13.388 119.461 13.4453C119.529 13.5078 119.562 13.5885 119.562 13.6875C119.562 13.7812 119.529 13.8594 119.461 13.9219C119.393 13.9844 119.281 14.0156 119.125 14.0156H115.992C115.836 14.0156 115.724 13.9844 115.656 13.9219C115.589 13.8646 115.555 13.7865 115.555 13.6875C115.555 13.5885 115.589 13.5078 115.656 13.4453C115.724 13.388 115.836 13.3594 115.992 13.3594H116.875V4.89844H115.992C115.836 4.89844 115.724 4.86719 115.656 4.80469C115.589 4.74219 115.555 4.66146 115.555 4.5625C115.555 4.46875 115.589 4.39062 115.656 4.32812C115.724 4.26562 115.836 4.23438 115.992 4.23438H117.531ZM123.219 7.41406C123.219 6.65885 122.943 6.01302 122.391 5.47656C121.844 4.9349 121.174 4.66406 120.383 4.66406C119.586 4.66406 118.911 4.9349 118.359 5.47656C117.807 6.01823 117.531 6.66406 117.531 7.41406C117.531 8.16927 117.807 8.81771 118.359 9.35938C118.911 9.90104 119.586 10.1719 120.383 10.1719C121.169 10.1719 121.839 9.90365 122.391 9.36719C122.943 8.82552 123.219 8.17448 123.219 7.41406ZM131.5 11V10.0547C130.547 10.8568 129.529 11.2578 128.445 11.2578C127.659 11.2578 127.044 11.0599 126.602 10.6641C126.159 10.263 125.938 9.77344 125.938 9.19531C125.938 8.5599 126.229 8.00521 126.812 7.53125C127.396 7.05729 128.247 6.82031 129.367 6.82031C129.669 6.82031 129.997 6.84115 130.352 6.88281C130.706 6.91927 131.089 6.97917 131.5 7.0625V6C131.5 5.64062 131.333 5.32812 131 5.0625C130.667 4.79688 130.167 4.66406 129.5 4.66406C128.99 4.66406 128.273 4.8125 127.352 5.10938C127.185 5.16146 127.078 5.1875 127.031 5.1875C126.948 5.1875 126.875 5.15625 126.812 5.09375C126.755 5.03125 126.727 4.95312 126.727 4.85938C126.727 4.77083 126.753 4.70052 126.805 4.64844C126.878 4.57031 127.172 4.46354 127.688 4.32812C128.5 4.10938 129.115 4 129.531 4C130.359 4 131.005 4.20573 131.469 4.61719C131.932 5.02344 132.164 5.48438 132.164 6V10.3438H133.039C133.201 10.3438 133.315 10.375 133.383 10.4375C133.451 10.4948 133.484 10.5729 133.484 10.6719C133.484 10.7656 133.451 10.8438 133.383 10.9062C133.315 10.9688 133.201 11 133.039 11H131.5ZM131.5 7.73438C131.193 7.64583 130.867 7.58073 130.523 7.53906C130.18 7.4974 129.818 7.47656 129.438 7.47656C128.484 7.47656 127.74 7.68229 127.203 8.09375C126.797 8.40104 126.594 8.76823 126.594 9.19531C126.594 9.59115 126.747 9.92448 127.055 10.1953C127.367 10.4661 127.82 10.6016 128.414 10.6016C128.982 10.6016 129.508 10.4896 129.992 10.2656C130.482 10.0365 130.984 9.67448 131.5 9.17969V7.73438ZM136.703 10.3438V4.89844H135.82C135.529 4.89844 135.383 4.78906 135.383 4.57031C135.383 4.34635 135.529 4.23438 135.82 4.23438H139.383C141.159 4.23438 142.047 4.79688 142.047 5.92188C142.047 6.625 141.589 7.07552 140.672 7.27344C142.052 7.45573 142.742 8.05469 142.742 9.07031C142.742 10.3568 141.883 11 140.164 11H135.82C135.529 11 135.383 10.8906 135.383 10.6719C135.383 10.4531 135.529 10.3438 135.82 10.3438H136.703ZM137.359 6.97656H139.117C140.633 6.97656 141.391 6.61198 141.391 5.88281C141.391 5.57552 141.263 5.33594 141.008 5.16406C140.753 4.98698 140.214 4.89844 139.391 4.89844H137.359V6.97656ZM137.359 10.3438H140.109C141.422 10.3438 142.078 9.92188 142.078 9.07812C142.078 8.66667 141.911 8.32292 141.578 8.04688C141.245 7.77083 140.438 7.63281 139.156 7.63281H137.359V10.3438ZM150.719 11V10.0547C149.766 10.8568 148.747 11.2578 147.664 11.2578C146.878 11.2578 146.263 11.0599 145.82 10.6641C145.378 10.263 145.156 9.77344 145.156 9.19531C145.156 8.5599 145.448 8.00521 146.031 7.53125C146.615 7.05729 147.466 6.82031 148.586 6.82031C148.888 6.82031 149.216 6.84115 149.57 6.88281C149.924 6.91927 150.307 6.97917 150.719 7.0625V6C150.719 5.64062 150.552 5.32812 150.219 5.0625C149.885 4.79688 149.385 4.66406 148.719 4.66406C148.208 4.66406 147.492 4.8125 146.57 5.10938C146.404 5.16146 146.297 5.1875 146.25 5.1875C146.167 5.1875 146.094 5.15625 146.031 5.09375C145.974 5.03125 145.945 4.95312 145.945 4.85938C145.945 4.77083 145.971 4.70052 146.023 4.64844C146.096 4.57031 146.391 4.46354 146.906 4.32812C147.719 4.10938 148.333 4 148.75 4C149.578 4 150.224 4.20573 150.688 4.61719C151.151 5.02344 151.383 5.48438 151.383 6V10.3438H152.258C152.419 10.3438 152.534 10.375 152.602 10.4375C152.669 10.4948 152.703 10.5729 152.703 10.6719C152.703 10.7656 152.669 10.8438 152.602 10.9062C152.534 10.9688 152.419 11 152.258 11H150.719ZM150.719 7.73438C150.411 7.64583 150.086 7.58073 149.742 7.53906C149.398 7.4974 149.036 7.47656 148.656 7.47656C147.703 7.47656 146.958 7.68229 146.422 8.09375C146.016 8.40104 145.812 8.76823 145.812 9.19531C145.812 9.59115 145.966 9.92448 146.273 10.1953C146.586 10.4661 147.039 10.6016 147.633 10.6016C148.201 10.6016 148.727 10.4896 149.211 10.2656C149.701 10.0365 150.203 9.67448 150.719 9.17969V7.73438ZM170 7.42188L170.477 7.53125C170.826 7.60938 171.133 7.79948 171.398 8.10156C171.664 8.39844 171.797 8.7474 171.797 9.14844C171.797 9.76823 171.513 10.276 170.945 10.6719C170.383 11.0625 169.469 11.2578 168.203 11.2578C167.37 11.2578 166.523 11.138 165.664 10.8984C164.805 10.6536 164.375 10.3958 164.375 10.125C164.375 10.026 164.411 9.94271 164.484 9.875C164.557 9.80208 164.63 9.76562 164.703 9.76562C164.771 9.76562 164.862 9.79427 164.977 9.85156C165.992 10.3516 167.089 10.6016 168.266 10.6016C169.203 10.6016 169.906 10.4661 170.375 10.1953C170.849 9.91927 171.086 9.57031 171.086 9.14844C171.086 8.66927 170.812 8.33073 170.266 8.13281C169.724 7.92969 168.786 7.82812 167.453 7.82812H167.023C166.659 7.82812 166.477 7.72656 166.477 7.52344C166.477 7.28385 166.659 7.16406 167.023 7.16406H167.453C169.651 7.16406 170.75 6.72917 170.75 5.85938C170.75 5.49479 170.531 5.20573 170.094 4.99219C169.661 4.77344 169.036 4.66406 168.219 4.66406C166.62 4.66406 165.695 5.17969 165.445 6.21094C165.378 6.49219 165.263 6.63281 165.102 6.63281C164.909 6.63281 164.812 6.51823 164.812 6.28906V4.5625C164.812 4.1875 164.919 4 165.133 4C165.357 4 165.469 4.1875 165.469 4.5625V5.05469C166.141 4.35156 167.109 4 168.375 4C169.281 4 170.021 4.16406 170.594 4.49219C171.167 4.8151 171.453 5.26823 171.453 5.85156C171.453 6.59115 170.969 7.11458 170 7.42188ZM179.547 11V10.0547C178.594 10.8568 177.576 11.2578 176.492 11.2578C175.706 11.2578 175.091 11.0599 174.648 10.6641C174.206 10.263 173.984 9.77344 173.984 9.19531C173.984 8.5599 174.276 8.00521 174.859 7.53125C175.443 7.05729 176.294 6.82031 177.414 6.82031C177.716 6.82031 178.044 6.84115 178.398 6.88281C178.753 6.91927 179.135 6.97917 179.547 7.0625V6C179.547 5.64062 179.38 5.32812 179.047 5.0625C178.714 4.79688 178.214 4.66406 177.547 4.66406C177.036 4.66406 176.32 4.8125 175.398 5.10938C175.232 5.16146 175.125 5.1875 175.078 5.1875C174.995 5.1875 174.922 5.15625 174.859 5.09375C174.802 5.03125 174.773 4.95312 174.773 4.85938C174.773 4.77083 174.799 4.70052 174.852 4.64844C174.924 4.57031 175.219 4.46354 175.734 4.32812C176.547 4.10938 177.161 4 177.578 4C178.406 4 179.052 4.20573 179.516 4.61719C179.979 5.02344 180.211 5.48438 180.211 6V10.3438H181.086C181.247 10.3438 181.362 10.375 181.43 10.4375C181.497 10.4948 181.531 10.5729 181.531 10.6719C181.531 10.7656 181.497 10.8438 181.43 10.9062C181.362 10.9688 181.247 11 181.086 11H179.547ZM179.547 7.73438C179.24 7.64583 178.914 7.58073 178.57 7.53906C178.227 7.4974 177.865 7.47656 177.484 7.47656C176.531 7.47656 175.786 7.68229 175.25 8.09375C174.844 8.40104 174.641 8.76823 174.641 9.19531C174.641 9.59115 174.794 9.92448 175.102 10.1953C175.414 10.4661 175.867 10.6016 176.461 10.6016C177.029 10.6016 177.555 10.4896 178.039 10.2656C178.529 10.0365 179.031 9.67448 179.547 9.17969V7.73438ZM190.867 10.3438H191.516C191.76 10.3438 191.914 10.3724 191.977 10.4297C192.039 10.487 192.07 10.6406 192.07 10.8906V12.1172C192.07 12.4714 191.961 12.6484 191.742 12.6484C191.518 12.6484 191.406 12.4792 191.406 12.1406V11H183.164C182.872 11 182.727 10.8906 182.727 10.6719C182.727 10.4531 182.872 10.3438 183.164 10.3438H183.672V4.89844H183.305C183.013 4.89844 182.867 4.78906 182.867 4.57031C182.867 4.34635 183.013 4.23438 183.305 4.23438H184.688C184.984 4.23438 185.133 4.34635 185.133 4.57031C185.133 4.78906 184.984 4.89844 184.688 4.89844H184.328V10.3438H186.938V4.89844H186.578C186.286 4.89844 186.141 4.78906 186.141 4.57031C186.141 4.34635 186.286 4.23438 186.578 4.23438H187.961C188.253 4.23438 188.398 4.34635 188.398 4.57031C188.398 4.78906 188.253 4.89844 187.961 4.89844H187.602V10.3438H190.211V4.89844H189.844C189.552 4.89844 189.406 4.78906 189.406 4.57031C189.406 4.34635 189.552 4.23438 189.844 4.23438H191.227C191.523 4.23438 191.672 4.34635 191.672 4.57031C191.672 4.78906 191.523 4.89844 191.227 4.89844H190.867V10.3438ZM194.531 11H192.969C192.677 11 192.531 10.8906 192.531 10.6719C192.531 10.4531 192.677 10.3438 192.969 10.3438H193.758V4.89844H192.969C192.677 4.89844 192.531 4.78906 192.531 4.57031C192.531 4.34635 192.677 4.23438 192.969 4.23438H195.297C195.589 4.23438 195.734 4.34635 195.734 4.57031C195.734 4.78906 195.589 4.89844 195.297 4.89844H194.414V10.0547L199.141 4.23438H200.789C201.081 4.23438 201.227 4.34635 201.227 4.57031C201.227 4.78906 201.081 4.89844 200.789 4.89844H199.906V10.3438H200.789C201.081 10.3438 201.227 10.4531 201.227 10.6719C201.227 10.8906 201.081 11 200.789 11H198.367C198.076 11 197.93 10.8906 197.93 10.6719C197.93 10.4531 198.076 10.3438 198.367 10.3438H199.25V5.19531L194.531 11ZM210.086 10.3438H210.734C210.979 10.3438 211.133 10.3724 211.195 10.4297C211.258 10.487 211.289 10.6406 211.289 10.8906V12.1172C211.289 12.4714 211.18 12.6484 210.961 12.6484C210.737 12.6484 210.625 12.4792 210.625 12.1406V11H202.383C202.091 11 201.945 10.8906 201.945 10.6719C201.945 10.4531 202.091 10.3438 202.383 10.3438H202.891V4.89844H202.523C202.232 4.89844 202.086 4.78906 202.086 4.57031C202.086 4.34635 202.232 4.23438 202.523 4.23438H203.906C204.203 4.23438 204.352 4.34635 204.352 4.57031C204.352 4.78906 204.203 4.89844 203.906 4.89844H203.547V10.3438H206.156V4.89844H205.797C205.505 4.89844 205.359 4.78906 205.359 4.57031C205.359 4.34635 205.505 4.23438 205.797 4.23438H207.18C207.471 4.23438 207.617 4.34635 207.617 4.57031C207.617 4.78906 207.471 4.89844 207.18 4.89844H206.82V10.3438H209.43V4.89844H209.062C208.771 4.89844 208.625 4.78906 208.625 4.57031C208.625 4.34635 208.771 4.23438 209.062 4.23438H210.445C210.742 4.23438 210.891 4.34635 210.891 4.57031C210.891 4.78906 210.742 4.89844 210.445 4.89844H210.086V10.3438ZM219.648 7.77344H212.961C213.076 8.6224 213.43 9.30729 214.023 9.82812C214.622 10.3438 215.362 10.6016 216.242 10.6016C216.732 10.6016 217.245 10.5208 217.781 10.3594C218.318 10.1979 218.755 9.98438 219.094 9.71875C219.193 9.64062 219.279 9.60156 219.352 9.60156C219.435 9.60156 219.508 9.63542 219.57 9.70312C219.633 9.76562 219.664 9.84115 219.664 9.92969C219.664 10.0182 219.622 10.1042 219.539 10.1875C219.289 10.4479 218.844 10.6927 218.203 10.9219C217.568 11.1458 216.914 11.2578 216.242 11.2578C215.117 11.2578 214.177 10.8906 213.422 10.1562C212.672 9.41667 212.297 8.52344 212.297 7.47656C212.297 6.52344 212.648 5.70573 213.352 5.02344C214.06 4.34115 214.935 4 215.977 4C217.049 4 217.932 4.35156 218.625 5.05469C219.318 5.7526 219.659 6.65885 219.648 7.77344ZM218.984 7.10938C218.854 6.38542 218.51 5.79688 217.953 5.34375C217.401 4.89062 216.742 4.66406 215.977 4.66406C215.211 4.66406 214.552 4.88802 214 5.33594C213.448 5.78385 213.104 6.375 212.969 7.10938H218.984ZM227.836 7.77344H223.578V10.3438H224.32C224.612 10.3438 224.758 10.4531 224.758 10.6719C224.758 10.8906 224.612 11 224.32 11H222.18C221.888 11 221.742 10.8906 221.742 10.6719C221.742 10.4531 221.888 10.3438 222.18 10.3438H222.922V4.89844H222.414C222.122 4.89844 221.977 4.78906 221.977 4.57031C221.977 4.34635 222.122 4.23438 222.414 4.23438H224.086C224.378 4.23438 224.523 4.34635 224.523 4.57031C224.523 4.78906 224.378 4.89844 224.086 4.89844H223.578V7.10938H227.836V4.89844H227.336C227.039 4.89844 226.891 4.78906 226.891 4.57031C226.891 4.34635 227.039 4.23438 227.336 4.23438H229C229.292 4.23438 229.438 4.34635 229.438 4.57031C229.438 4.78906 229.292 4.89844 229 4.89844H228.492V10.3438H229.234C229.526 10.3438 229.672 10.4531 229.672 10.6719C229.672 10.8906 229.526 11 229.234 11H227.094C226.802 11 226.656 10.8906 226.656 10.6719C226.656 10.4531 226.802 10.3438 227.094 10.3438H227.836V7.77344ZM238.75 4.89844V10.3438H239.625C239.922 10.3438 240.07 10.4531 240.07 10.6719C240.07 10.8906 239.922 11 239.625 11H237.211C236.919 11 236.773 10.8906 236.773 10.6719C236.773 10.4531 236.919 10.3438 237.211 10.3438H238.086V4.89844H237.211C236.919 4.89844 236.773 4.78906 236.773 4.57031C236.773 4.34635 236.919 4.23438 237.211 4.23438H239.625C239.922 4.23438 240.07 4.34635 240.07 4.57031C240.07 4.78906 239.922 4.89844 239.625 4.89844H238.75ZM232.18 4.89844V7.10938H233.719C235.74 7.10938 236.75 7.72917 236.75 8.96875C236.75 9.50521 236.581 9.97917 236.242 10.3906C235.904 10.7969 235.062 11 233.719 11H231.141C230.849 11 230.703 10.8906 230.703 10.6719C230.703 10.4531 230.849 10.3438 231.141 10.3438H231.523V4.89844H231.172C230.875 4.89844 230.727 4.78906 230.727 4.57031C230.727 4.34635 230.875 4.23438 231.172 4.23438H233.062C233.354 4.23438 233.5 4.34635 233.5 4.57031C233.5 4.78906 233.354 4.89844 233.062 4.89844H232.18ZM232.18 10.3438H233.688C234.594 10.3438 235.219 10.2422 235.562 10.0391C235.906 9.83594 236.078 9.48958 236.078 9C236.078 8.53125 235.896 8.21094 235.531 8.03906C235.172 7.86198 234.549 7.77344 233.664 7.77344H232.18V10.3438ZM251.711 10.3438H256.75V10.0859C256.75 9.92969 256.781 9.81771 256.844 9.75C256.906 9.68229 256.987 9.64844 257.086 9.64844C257.18 9.64844 257.258 9.68229 257.32 9.75C257.383 9.81771 257.414 9.92969 257.414 10.0859V11H251.07V10.0312C252.404 8.83333 253.701 7.61458 254.961 6.375C255.549 5.79688 255.953 5.3724 256.172 5.10156C256.391 4.83073 256.539 4.59375 256.617 4.39062C256.701 4.18229 256.742 3.97396 256.742 3.76562C256.742 3.20312 256.516 2.70573 256.062 2.27344C255.609 1.84115 255.062 1.625 254.422 1.625C253.849 1.625 253.341 1.78906 252.898 2.11719C252.456 2.44531 252.169 2.85156 252.039 3.33594C252.008 3.46094 251.969 3.54167 251.922 3.57812C251.859 3.63021 251.786 3.65625 251.703 3.65625C251.615 3.65625 251.539 3.6276 251.477 3.57031C251.419 3.50781 251.391 3.4349 251.391 3.35156C251.391 3.10156 251.526 2.76302 251.797 2.33594C252.073 1.90885 252.451 1.57292 252.93 1.32812C253.414 1.08333 253.909 0.960938 254.414 0.960938C255.232 0.960938 255.935 1.24479 256.523 1.8125C257.112 2.38021 257.406 3.02344 257.406 3.74219C257.406 4.04427 257.357 4.32292 257.258 4.57812C257.159 4.82812 256.99 5.10417 256.75 5.40625C256.516 5.70312 256.091 6.15365 255.477 6.75781C253.935 8.27865 252.68 9.45833 251.711 10.2969V10.3438ZM267.156 5.28906V6.91406C267.156 8.32552 266.82 9.44271 266.148 10.2656C265.622 10.9115 264.958 11.2344 264.156 11.2344C263.771 11.2344 263.406 11.1562 263.062 11C262.724 10.849 262.435 10.6354 262.195 10.3594C262.044 10.1875 261.878 9.91146 261.695 9.53125C261.518 9.15104 261.391 8.80208 261.312 8.48438C261.193 8.03646 261.133 7.51302 261.133 6.91406V5.28906C261.133 3.8724 261.469 2.7526 262.141 1.92969C262.667 1.28385 263.331 0.960938 264.133 0.960938C264.523 0.960938 264.888 1.03906 265.227 1.19531C265.565 1.34635 265.854 1.5599 266.094 1.83594C266.25 2.01302 266.417 2.29167 266.594 2.67188C266.771 3.05208 266.901 3.39844 266.984 3.71094C267.099 4.15885 267.156 4.6849 267.156 5.28906ZM266.5 5.375C266.5 4.75521 266.411 4.17969 266.234 3.64844C266.062 3.11198 265.867 2.6849 265.648 2.36719C265.518 2.1849 265.349 2.02865 265.141 1.89844C264.844 1.71615 264.51 1.625 264.141 1.625C263.406 1.625 262.831 2 262.414 2.75C261.997 3.5 261.789 4.375 261.789 5.375V6.82031C261.789 7.4401 261.875 8.01823 262.047 8.55469C262.224 9.09115 262.424 9.51823 262.648 9.83594C262.773 10.013 262.94 10.1667 263.148 10.2969C263.445 10.4844 263.781 10.5781 264.156 10.5781C264.885 10.5781 265.458 10.2031 265.875 9.45312C266.292 8.69792 266.5 7.82031 266.5 6.82031V5.375ZM270.93 10.3438H275.969V10.0859C275.969 9.92969 276 9.81771 276.062 9.75C276.125 9.68229 276.206 9.64844 276.305 9.64844C276.398 9.64844 276.477 9.68229 276.539 9.75C276.602 9.81771 276.633 9.92969 276.633 10.0859V11H270.289V10.0312C271.622 8.83333 272.919 7.61458 274.18 6.375C274.768 5.79688 275.172 5.3724 275.391 5.10156C275.609 4.83073 275.758 4.59375 275.836 4.39062C275.919 4.18229 275.961 3.97396 275.961 3.76562C275.961 3.20312 275.734 2.70573 275.281 2.27344C274.828 1.84115 274.281 1.625 273.641 1.625C273.068 1.625 272.56 1.78906 272.117 2.11719C271.674 2.44531 271.388 2.85156 271.258 3.33594C271.227 3.46094 271.188 3.54167 271.141 3.57812C271.078 3.63021 271.005 3.65625 270.922 3.65625C270.833 3.65625 270.758 3.6276 270.695 3.57031C270.638 3.50781 270.609 3.4349 270.609 3.35156C270.609 3.10156 270.745 2.76302 271.016 2.33594C271.292 1.90885 271.669 1.57292 272.148 1.32812C272.633 1.08333 273.128 0.960938 273.633 0.960938C274.451 0.960938 275.154 1.24479 275.742 1.8125C276.331 2.38021 276.625 3.02344 276.625 3.74219C276.625 4.04427 276.576 4.32292 276.477 4.57812C276.378 4.82812 276.208 5.10417 275.969 5.40625C275.734 5.70312 275.31 6.15365 274.695 6.75781C273.154 8.27865 271.898 9.45833 270.93 10.2969V10.3438ZM283.688 1.0625V10.3438H285.938C286.094 10.3438 286.206 10.375 286.273 10.4375C286.341 10.4948 286.375 10.5729 286.375 10.6719C286.375 10.7656 286.341 10.8438 286.273 10.9062C286.206 10.9688 286.094 11 285.938 11H280.781C280.625 11 280.513 10.9688 280.445 10.9062C280.378 10.8438 280.344 10.7656 280.344 10.6719C280.344 10.5729 280.378 10.4948 280.445 10.4375C280.513 10.375 280.625 10.3438 280.781 10.3438H283.031V1.96875L280.891 2.64062C280.786 2.67188 280.711 2.6875 280.664 2.6875C280.586 2.6875 280.513 2.65625 280.445 2.59375C280.383 2.52604 280.352 2.44792 280.352 2.35938C280.352 2.28125 280.378 2.20833 280.43 2.14062C280.471 2.09896 280.557 2.05469 280.688 2.00781L283.688 1.0625ZM297.727 6.4375C297.727 7.75521 297.26 8.88021 296.328 9.8125C295.396 10.7448 294.268 11.2109 292.945 11.2109C291.628 11.2109 290.503 10.7448 289.57 9.8125C288.638 8.88021 288.172 7.75521 288.172 6.4375C288.172 5.11458 288.638 3.98698 289.57 3.05469C290.503 2.1224 291.628 1.65625 292.945 1.65625C294.268 1.65625 295.396 2.1224 296.328 3.05469C297.26 3.98698 297.727 5.11458 297.727 6.4375ZM297.195 6.4375C297.195 5.26042 296.781 4.25781 295.953 3.42969C295.125 2.60156 294.122 2.1875 292.945 2.1875C291.773 2.1875 290.771 2.60156 289.938 3.42969C289.109 4.25781 288.695 5.26042 288.695 6.4375C288.695 7.60938 289.109 8.60938 289.938 9.4375C290.771 10.2656 291.773 10.6797 292.945 10.6797C294.122 10.6797 295.125 10.2656 295.953 9.4375C296.781 8.60938 297.195 7.60938 297.195 6.4375ZM294.5 4.26562V4C294.5 3.91146 294.518 3.84896 294.555 3.8125C294.591 3.77083 294.638 3.75 294.695 3.75C294.747 3.75 294.789 3.77083 294.82 3.8125C294.857 3.84896 294.875 3.91146 294.875 4V5.03125C294.875 5.10417 294.867 5.15625 294.852 5.1875C294.841 5.21354 294.82 5.23698 294.789 5.25781C294.758 5.27344 294.724 5.28125 294.688 5.28125C294.641 5.28125 294.599 5.26562 294.562 5.23438C294.531 5.19792 294.51 5.14062 294.5 5.0625C294.484 4.80729 294.352 4.58594 294.102 4.39844C293.758 4.13802 293.367 4.00781 292.93 4.00781C292.409 4.00781 291.997 4.17188 291.695 4.5C291.289 4.94792 291.086 5.44792 291.086 6V6.64844C291.086 7.20573 291.286 7.6901 291.688 8.10156C292.089 8.50781 292.552 8.71094 293.078 8.71094C293.682 8.71094 294.214 8.43229 294.672 7.875C294.724 7.8125 294.779 7.78125 294.836 7.78125C294.893 7.78125 294.938 7.79688 294.969 7.82812C295 7.85938 295.016 7.90104 295.016 7.95312C295.016 8.09896 294.82 8.32292 294.43 8.625C294.039 8.92708 293.594 9.07812 293.094 9.07812C292.651 9.07812 292.253 8.96875 291.898 8.75C291.544 8.52604 291.227 8.17188 290.945 7.6875C290.789 7.41146 290.711 7.08333 290.711 6.70312V5.94531C290.711 5.39323 290.909 4.86979 291.305 4.375C291.701 3.88021 292.237 3.63281 292.914 3.63281C293.534 3.63281 294.062 3.84375 294.5 4.26562ZM302.445 9.11719H302.727C303.018 9.11719 303.268 9.22135 303.477 9.42969C303.685 9.63281 303.789 9.88021 303.789 10.1719C303.789 10.474 303.682 10.7266 303.469 10.9297C303.26 11.1328 303.013 11.2344 302.727 11.2344H302.445C302.154 11.2344 301.904 11.1328 301.695 10.9297C301.487 10.7214 301.383 10.4714 301.383 10.1797C301.383 9.8776 301.487 9.625 301.695 9.42188C301.909 9.21875 302.159 9.11719 302.445 9.11719ZM318.633 10.3438V2.51562H317.75C317.458 2.51562 317.312 2.40625 317.312 2.1875C317.312 1.96875 317.458 1.85938 317.75 1.85938H320.5C320.797 1.85938 320.945 1.96875 320.945 2.1875C320.945 2.40625 320.797 2.51562 320.5 2.51562H319.289V10.0547L324.133 1.85938H325.852C326.143 1.85938 326.289 1.96875 326.289 2.1875C326.289 2.40625 326.143 2.51562 325.852 2.51562H324.969V10.3438H325.852C326.143 10.3438 326.289 10.4531 326.289 10.6719C326.289 10.8906 326.143 11 325.852 11H323.43C323.138 11 322.992 10.8906 322.992 10.6719C322.992 10.4531 323.138 10.3438 323.43 10.3438H324.312V2.82031L319.477 11H317.75C317.458 11 317.312 10.8906 317.312 10.6719C317.312 10.4531 317.458 10.3438 317.75 10.3438H318.633ZM333.539 7.77344H329.281V10.3438H330.023C330.315 10.3438 330.461 10.4531 330.461 10.6719C330.461 10.8906 330.315 11 330.023 11H327.883C327.591 11 327.445 10.8906 327.445 10.6719C327.445 10.4531 327.591 10.3438 327.883 10.3438H328.625V4.89844H328.117C327.826 4.89844 327.68 4.78906 327.68 4.57031C327.68 4.34635 327.826 4.23438 328.117 4.23438H329.789C330.081 4.23438 330.227 4.34635 330.227 4.57031C330.227 4.78906 330.081 4.89844 329.789 4.89844H329.281V7.10938H333.539V4.89844H333.039C332.742 4.89844 332.594 4.78906 332.594 4.57031C332.594 4.34635 332.742 4.23438 333.039 4.23438H334.703C334.995 4.23438 335.141 4.34635 335.141 4.57031C335.141 4.78906 334.995 4.89844 334.703 4.89844H334.195V10.3438H334.938C335.229 10.3438 335.375 10.4531 335.375 10.6719C335.375 10.8906 335.229 11 334.938 11H332.797C332.505 11 332.359 10.8906 332.359 10.6719C332.359 10.4531 332.505 10.3438 332.797 10.3438H333.539V7.77344ZM341.352 4.89844V7.03906H341.508C341.716 7.03906 341.901 6.95833 342.062 6.79688C342.224 6.63542 342.497 6.25521 342.883 5.65625C343.273 5.04688 343.581 4.65885 343.805 4.49219C344.034 4.32031 344.367 4.23438 344.805 4.23438C345.044 4.23438 345.195 4.27083 345.258 4.34375C345.32 4.41667 345.352 4.5651 345.352 4.78906V5.33594C345.352 5.66927 345.245 5.83594 345.031 5.83594C344.802 5.83594 344.688 5.6875 344.688 5.39062V4.89844C344.458 4.89844 344.263 4.95833 344.102 5.07812C343.945 5.19271 343.711 5.5 343.398 6C342.982 6.68229 342.664 7.10156 342.445 7.25781C342.924 7.52344 343.378 8.03646 343.805 8.79688L344.664 10.3438H345.109C345.474 10.3438 345.656 10.4531 345.656 10.6719C345.656 10.8906 345.474 11 345.109 11H344.688C344.474 11 344.341 10.987 344.289 10.9609C344.237 10.9297 344.161 10.8229 344.062 10.6406L343.203 9.09375C342.688 8.16146 342.143 7.69531 341.57 7.69531H341.352V10.3438H341.805C342.174 10.3438 342.359 10.4531 342.359 10.6719C342.359 10.8906 342.174 11 341.805 11H340.227C339.857 11 339.672 10.8906 339.672 10.6719C339.672 10.4531 339.857 10.3438 340.227 10.3438H340.688V7.69531H340.461C339.888 7.69531 339.344 8.16146 338.828 9.09375L337.969 10.6406C337.87 10.8177 337.794 10.9219 337.742 10.9531C337.695 10.9844 337.57 11 337.367 11H336.922C336.557 11 336.375 10.8906 336.375 10.6719C336.375 10.4531 336.557 10.3438 336.922 10.3438H337.367L338.234 8.79688C338.625 8.09896 339.076 7.58594 339.586 7.25781C339.367 7.08073 339.049 6.66146 338.633 6C338.315 5.50521 338.078 5.19792 337.922 5.07812C337.771 4.95833 337.578 4.89844 337.344 4.89844V5.39062C337.344 5.6875 337.234 5.83594 337.016 5.83594C336.792 5.83594 336.68 5.66927 336.68 5.33594V4.78906C336.68 4.5651 336.708 4.41667 336.766 4.34375C336.823 4.27083 336.943 4.23438 337.125 4.23438C337.583 4.23438 337.943 4.32031 338.203 4.49219C338.469 4.65885 338.786 5.04688 339.156 5.65625C339.542 6.29688 339.826 6.6875 340.008 6.82812C340.195 6.96875 340.367 7.03906 340.523 7.03906H340.688V4.89844H340.227C339.857 4.89844 339.672 4.78906 339.672 4.57031C339.672 4.34635 339.857 4.23438 340.227 4.23438H341.805C342.174 4.23438 342.359 4.34635 342.359 4.57031C342.359 4.78906 342.174 4.89844 341.805 4.89844H341.352ZM354.18 7.77344H347.492C347.607 8.6224 347.961 9.30729 348.555 9.82812C349.154 10.3438 349.893 10.6016 350.773 10.6016C351.263 10.6016 351.776 10.5208 352.312 10.3594C352.849 10.1979 353.286 9.98438 353.625 9.71875C353.724 9.64062 353.81 9.60156 353.883 9.60156C353.966 9.60156 354.039 9.63542 354.102 9.70312C354.164 9.76562 354.195 9.84115 354.195 9.92969C354.195 10.0182 354.154 10.1042 354.07 10.1875C353.82 10.4479 353.375 10.6927 352.734 10.9219C352.099 11.1458 351.445 11.2578 350.773 11.2578C349.648 11.2578 348.708 10.8906 347.953 10.1562C347.203 9.41667 346.828 8.52344 346.828 7.47656C346.828 6.52344 347.18 5.70573 347.883 5.02344C348.591 4.34115 349.466 4 350.508 4C351.581 4 352.464 4.35156 353.156 5.05469C353.849 5.7526 354.19 6.65885 354.18 7.77344ZM353.516 7.10938C353.385 6.38542 353.042 5.79688 352.484 5.34375C351.932 4.89062 351.273 4.66406 350.508 4.66406C349.742 4.66406 349.083 4.88802 348.531 5.33594C347.979 5.78385 347.635 6.375 347.5 7.10938H353.516ZM362.367 7.77344H358.109V10.3438H358.852C359.143 10.3438 359.289 10.4531 359.289 10.6719C359.289 10.8906 359.143 11 358.852 11H356.711C356.419 11 356.273 10.8906 356.273 10.6719C356.273 10.4531 356.419 10.3438 356.711 10.3438H357.453V4.89844H356.945C356.654 4.89844 356.508 4.78906 356.508 4.57031C356.508 4.34635 356.654 4.23438 356.945 4.23438H358.617C358.909 4.23438 359.055 4.34635 359.055 4.57031C359.055 4.78906 358.909 4.89844 358.617 4.89844H358.109V7.10938H362.367V4.89844H361.867C361.57 4.89844 361.422 4.78906 361.422 4.57031C361.422 4.34635 361.57 4.23438 361.867 4.23438H363.531C363.823 4.23438 363.969 4.34635 363.969 4.57031C363.969 4.78906 363.823 4.89844 363.531 4.89844H363.023V10.3438H363.766C364.057 10.3438 364.203 10.4531 364.203 10.6719C364.203 10.8906 364.057 11 363.766 11H361.625C361.333 11 361.188 10.8906 361.188 10.6719C361.188 10.4531 361.333 10.3438 361.625 10.3438H362.367V7.77344ZM373.398 7.77344H366.711C366.826 8.6224 367.18 9.30729 367.773 9.82812C368.372 10.3438 369.112 10.6016 369.992 10.6016C370.482 10.6016 370.995 10.5208 371.531 10.3594C372.068 10.1979 372.505 9.98438 372.844 9.71875C372.943 9.64062 373.029 9.60156 373.102 9.60156C373.185 9.60156 373.258 9.63542 373.32 9.70312C373.383 9.76562 373.414 9.84115 373.414 9.92969C373.414 10.0182 373.372 10.1042 373.289 10.1875C373.039 10.4479 372.594 10.6927 371.953 10.9219C371.318 11.1458 370.664 11.2578 369.992 11.2578C368.867 11.2578 367.927 10.8906 367.172 10.1562C366.422 9.41667 366.047 8.52344 366.047 7.47656C366.047 6.52344 366.398 5.70573 367.102 5.02344C367.81 4.34115 368.685 4 369.727 4C370.799 4 371.682 4.35156 372.375 5.05469C373.068 5.7526 373.409 6.65885 373.398 7.77344ZM372.734 7.10938C372.604 6.38542 372.26 5.79688 371.703 5.34375C371.151 4.89062 370.492 4.66406 369.727 4.66406C368.961 4.66406 368.302 4.88802 367.75 5.33594C367.198 5.78385 366.854 6.375 366.719 7.10938H372.734ZM376.984 4.23438V5.42969C377.375 4.95573 377.794 4.59896 378.242 4.35938C378.69 4.11979 379.219 4 379.828 4C380.474 4 381.07 4.15104 381.617 4.45312C382.164 4.75521 382.586 5.17708 382.883 5.71875C383.185 6.25521 383.336 6.82031 383.336 7.41406C383.336 8.35677 382.997 9.16406 382.32 9.83594C381.648 10.5026 380.82 10.8359 379.836 10.8359C378.664 10.8359 377.714 10.3594 376.984 9.40625V13.3594H378.578C378.734 13.3594 378.846 13.388 378.914 13.4453C378.982 13.5078 379.016 13.5885 379.016 13.6875C379.016 13.7812 378.982 13.8594 378.914 13.9219C378.846 13.9844 378.734 14.0156 378.578 14.0156H375.445C375.289 14.0156 375.177 13.9844 375.109 13.9219C375.042 13.8646 375.008 13.7865 375.008 13.6875C375.008 13.5885 375.042 13.5078 375.109 13.4453C375.177 13.388 375.289 13.3594 375.445 13.3594H376.328V4.89844H375.445C375.289 4.89844 375.177 4.86719 375.109 4.80469C375.042 4.74219 375.008 4.66146 375.008 4.5625C375.008 4.46875 375.042 4.39062 375.109 4.32812C375.177 4.26562 375.289 4.23438 375.445 4.23438H376.984ZM382.672 7.41406C382.672 6.65885 382.396 6.01302 381.844 5.47656C381.297 4.9349 380.628 4.66406 379.836 4.66406C379.039 4.66406 378.365 4.9349 377.812 5.47656C377.26 6.01823 376.984 6.66406 376.984 7.41406C376.984 8.16927 377.26 8.81771 377.812 9.35938C378.365 9.90104 379.039 10.1719 379.836 10.1719C380.622 10.1719 381.292 9.90365 381.844 9.36719C382.396 8.82552 382.672 8.17448 382.672 7.41406ZM391.195 7.77344H386.938V10.3438H387.68C387.971 10.3438 388.117 10.4531 388.117 10.6719C388.117 10.8906 387.971 11 387.68 11H385.539C385.247 11 385.102 10.8906 385.102 10.6719C385.102 10.4531 385.247 10.3438 385.539 10.3438H386.281V4.89844H385.773C385.482 4.89844 385.336 4.78906 385.336 4.57031C385.336 4.34635 385.482 4.23438 385.773 4.23438H387.445C387.737 4.23438 387.883 4.34635 387.883 4.57031C387.883 4.78906 387.737 4.89844 387.445 4.89844H386.938V7.10938H391.195V4.89844H390.695C390.398 4.89844 390.25 4.78906 390.25 4.57031C390.25 4.34635 390.398 4.23438 390.695 4.23438H392.359C392.651 4.23438 392.797 4.34635 392.797 4.57031C392.797 4.78906 392.651 4.89844 392.359 4.89844H391.852V10.3438H392.594C392.885 10.3438 393.031 10.4531 393.031 10.6719C393.031 10.8906 392.885 11 392.594 11H390.453C390.161 11 390.016 10.8906 390.016 10.6719C390.016 10.4531 390.161 10.3438 390.453 10.3438H391.195V7.77344ZM402.109 4.89844V10.3438H402.984C403.281 10.3438 403.43 10.4531 403.43 10.6719C403.43 10.8906 403.281 11 402.984 11H400.57C400.279 11 400.133 10.8906 400.133 10.6719C400.133 10.4531 400.279 10.3438 400.57 10.3438H401.445V4.89844H400.57C400.279 4.89844 400.133 4.78906 400.133 4.57031C400.133 4.34635 400.279 4.23438 400.57 4.23438H402.984C403.281 4.23438 403.43 4.34635 403.43 4.57031C403.43 4.78906 403.281 4.89844 402.984 4.89844H402.109ZM395.539 4.89844V7.10938H397.078C399.099 7.10938 400.109 7.72917 400.109 8.96875C400.109 9.50521 399.94 9.97917 399.602 10.3906C399.263 10.7969 398.422 11 397.078 11H394.5C394.208 11 394.062 10.8906 394.062 10.6719C394.062 10.4531 394.208 10.3438 394.5 10.3438H394.883V4.89844H394.531C394.234 4.89844 394.086 4.78906 394.086 4.57031C394.086 4.34635 394.234 4.23438 394.531 4.23438H396.422C396.714 4.23438 396.859 4.34635 396.859 4.57031C396.859 4.78906 396.714 4.89844 396.422 4.89844H395.539ZM395.539 10.3438H397.047C397.953 10.3438 398.578 10.2422 398.922 10.0391C399.266 9.83594 399.438 9.48958 399.438 9C399.438 8.53125 399.255 8.21094 398.891 8.03906C398.531 7.86198 397.909 7.77344 397.023 7.77344H395.539V10.3438ZM411.836 7.77344H405.148C405.263 8.6224 405.617 9.30729 406.211 9.82812C406.81 10.3438 407.549 10.6016 408.43 10.6016C408.919 10.6016 409.432 10.5208 409.969 10.3594C410.505 10.1979 410.943 9.98438 411.281 9.71875C411.38 9.64062 411.466 9.60156 411.539 9.60156C411.622 9.60156 411.695 9.63542 411.758 9.70312C411.82 9.76562 411.852 9.84115 411.852 9.92969C411.852 10.0182 411.81 10.1042 411.727 10.1875C411.477 10.4479 411.031 10.6927 410.391 10.9219C409.755 11.1458 409.102 11.2578 408.43 11.2578C407.305 11.2578 406.365 10.8906 405.609 10.1562C404.859 9.41667 404.484 8.52344 404.484 7.47656C404.484 6.52344 404.836 5.70573 405.539 5.02344C406.247 4.34115 407.122 4 408.164 4C409.237 4 410.12 4.35156 410.812 5.05469C411.505 5.7526 411.846 6.65885 411.836 7.77344ZM411.172 7.10938C411.042 6.38542 410.698 5.79688 410.141 5.34375C409.589 4.89062 408.93 4.66406 408.164 4.66406C407.398 4.66406 406.74 4.88802 406.188 5.33594C405.635 5.78385 405.292 6.375 405.156 7.10938H411.172ZM425.156 11H423.594C423.302 11 423.156 10.8906 423.156 10.6719C423.156 10.4531 423.302 10.3438 423.594 10.3438H424.383V4.89844H423.594C423.302 4.89844 423.156 4.78906 423.156 4.57031C423.156 4.34635 423.302 4.23438 423.594 4.23438H425.922C426.214 4.23438 426.359 4.34635 426.359 4.57031C426.359 4.78906 426.214 4.89844 425.922 4.89844H425.039V10.0547L429.766 4.23438H431.414C431.706 4.23438 431.852 4.34635 431.852 4.57031C431.852 4.78906 431.706 4.89844 431.414 4.89844H430.531V10.3438H431.414C431.706 10.3438 431.852 10.4531 431.852 10.6719C431.852 10.8906 431.706 11 431.414 11H428.992C428.701 11 428.555 10.8906 428.555 10.6719C428.555 10.4531 428.701 10.3438 428.992 10.3438H429.875V5.19531L425.156 11ZM439.062 7.42188L439.539 7.53125C439.888 7.60938 440.195 7.79948 440.461 8.10156C440.727 8.39844 440.859 8.7474 440.859 9.14844C440.859 9.76823 440.576 10.276 440.008 10.6719C439.445 11.0625 438.531 11.2578 437.266 11.2578C436.432 11.2578 435.586 11.138 434.727 10.8984C433.867 10.6536 433.438 10.3958 433.438 10.125C433.438 10.026 433.474 9.94271 433.547 9.875C433.62 9.80208 433.693 9.76562 433.766 9.76562C433.833 9.76562 433.924 9.79427 434.039 9.85156C435.055 10.3516 436.151 10.6016 437.328 10.6016C438.266 10.6016 438.969 10.4661 439.438 10.1953C439.911 9.91927 440.148 9.57031 440.148 9.14844C440.148 8.66927 439.875 8.33073 439.328 8.13281C438.786 7.92969 437.849 7.82812 436.516 7.82812H436.086C435.721 7.82812 435.539 7.72656 435.539 7.52344C435.539 7.28385 435.721 7.16406 436.086 7.16406H436.516C438.714 7.16406 439.812 6.72917 439.812 5.85938C439.812 5.49479 439.594 5.20573 439.156 4.99219C438.724 4.77344 438.099 4.66406 437.281 4.66406C435.682 4.66406 434.758 5.17969 434.508 6.21094C434.44 6.49219 434.326 6.63281 434.164 6.63281C433.971 6.63281 433.875 6.51823 433.875 6.28906V4.5625C433.875 4.1875 433.982 4 434.195 4C434.419 4 434.531 4.1875 434.531 4.5625V5.05469C435.203 4.35156 436.172 4 437.438 4C438.344 4 439.083 4.16406 439.656 4.49219C440.229 4.8151 440.516 5.26823 440.516 5.85156C440.516 6.59115 440.031 7.11458 439.062 7.42188ZM450.156 4.89844V10.3438H451.031C451.328 10.3438 451.477 10.4531 451.477 10.6719C451.477 10.8906 451.328 11 451.031 11H448.617C448.326 11 448.18 10.8906 448.18 10.6719C448.18 10.4531 448.326 10.3438 448.617 10.3438H449.492V4.89844H448.617C448.326 4.89844 448.18 4.78906 448.18 4.57031C448.18 4.34635 448.326 4.23438 448.617 4.23438H451.031C451.328 4.23438 451.477 4.34635 451.477 4.57031C451.477 4.78906 451.328 4.89844 451.031 4.89844H450.156ZM443.586 4.89844V7.10938H445.125C447.146 7.10938 448.156 7.72917 448.156 8.96875C448.156 9.50521 447.987 9.97917 447.648 10.3906C447.31 10.7969 446.469 11 445.125 11H442.547C442.255 11 442.109 10.8906 442.109 10.6719C442.109 10.4531 442.255 10.3438 442.547 10.3438H442.93V4.89844H442.578C442.281 4.89844 442.133 4.78906 442.133 4.57031C442.133 4.34635 442.281 4.23438 442.578 4.23438H444.469C444.76 4.23438 444.906 4.34635 444.906 4.57031C444.906 4.78906 444.76 4.89844 444.469 4.89844H443.586ZM443.586 10.3438H445.094C446 10.3438 446.625 10.2422 446.969 10.0391C447.312 9.83594 447.484 9.48958 447.484 9C447.484 8.53125 447.302 8.21094 446.938 8.03906C446.578 7.86198 445.956 7.77344 445.07 7.77344H443.586V10.3438ZM459.07 4.89844V4.67969C459.07 4.51823 459.102 4.40365 459.164 4.33594C459.227 4.26823 459.305 4.23438 459.398 4.23438C459.497 4.23438 459.578 4.26823 459.641 4.33594C459.703 4.40365 459.734 4.51823 459.734 4.67969V6.16406C459.729 6.32552 459.695 6.4401 459.633 6.50781C459.576 6.57552 459.497 6.60938 459.398 6.60938C459.31 6.60938 459.234 6.58073 459.172 6.52344C459.115 6.46094 459.081 6.35938 459.07 6.21875C459.039 5.84896 458.794 5.4974 458.336 5.16406C457.883 4.83073 457.271 4.66406 456.5 4.66406C455.526 4.66406 454.786 4.96875 454.281 5.57812C453.776 6.1875 453.523 6.88542 453.523 7.67188C453.523 8.52083 453.802 9.22135 454.359 9.77344C454.917 10.3255 455.638 10.6016 456.523 10.6016C457.034 10.6016 457.552 10.5078 458.078 10.3203C458.609 10.1328 459.089 9.83073 459.516 9.41406C459.625 9.3099 459.721 9.25781 459.805 9.25781C459.893 9.25781 459.966 9.28906 460.023 9.35156C460.086 9.40885 460.117 9.48177 460.117 9.57031C460.117 9.79427 459.854 10.0781 459.328 10.4219C458.479 10.9792 457.534 11.2578 456.492 11.2578C455.435 11.2578 454.565 10.9219 453.883 10.25C453.206 9.57292 452.867 8.71615 452.867 7.67969C452.867 6.6224 453.214 5.74479 453.906 5.04688C454.604 4.34896 455.482 4 456.539 4C457.544 4 458.388 4.29948 459.07 4.89844ZM469.062 4.89844C468.672 4.89844 468.385 4.95573 468.203 5.07031C468.021 5.17969 467.711 5.5026 467.273 6.03906C466.721 6.71615 466.305 7.14062 466.023 7.3125C466.273 7.375 466.505 7.47396 466.719 7.60938C466.938 7.74479 467.276 8.13802 467.734 8.78906L468.828 10.3438H469.75C470.115 10.3438 470.297 10.4531 470.297 10.6719C470.297 10.8906 470.115 11 469.75 11H468.828C468.562 11 468.385 10.9323 468.297 10.7969C468.281 10.7656 468.255 10.724 468.219 10.6719L467.109 9.03125C466.734 8.47396 466.359 8.11198 465.984 7.94531C465.609 7.77865 465.138 7.69531 464.57 7.69531H464.086V10.3438H464.883C465.247 10.3438 465.43 10.4531 465.43 10.6719C465.43 10.8906 465.247 11 464.883 11H462.625C462.26 11 462.078 10.8906 462.078 10.6719C462.078 10.4531 462.26 10.3438 462.625 10.3438H463.422V4.89844H462.625C462.26 4.89844 462.078 4.78906 462.078 4.57031C462.078 4.34635 462.26 4.23438 462.625 4.23438H464.883C465.247 4.23438 465.43 4.34635 465.43 4.57031C465.43 4.78906 465.247 4.89844 464.883 4.89844H464.086V7.03906H464.57C464.992 7.03906 465.315 6.97656 465.539 6.85156C465.763 6.72656 466.06 6.4375 466.43 5.98438C467.07 5.20312 467.531 4.71615 467.812 4.52344C468.094 4.33073 468.516 4.23438 469.078 4.23438C469.344 4.23438 469.516 4.26562 469.594 4.32812C469.677 4.39062 469.719 4.54427 469.719 4.78906V5.6875C469.719 6 469.607 6.15625 469.383 6.15625C469.169 6.15625 469.062 6.01823 469.062 5.74219V4.89844ZM477.438 11V10.0547C476.484 10.8568 475.466 11.2578 474.383 11.2578C473.596 11.2578 472.982 11.0599 472.539 10.6641C472.096 10.263 471.875 9.77344 471.875 9.19531C471.875 8.5599 472.167 8.00521 472.75 7.53125C473.333 7.05729 474.185 6.82031 475.305 6.82031C475.607 6.82031 475.935 6.84115 476.289 6.88281C476.643 6.91927 477.026 6.97917 477.438 7.0625V6C477.438 5.64062 477.271 5.32812 476.938 5.0625C476.604 4.79688 476.104 4.66406 475.438 4.66406C474.927 4.66406 474.211 4.8125 473.289 5.10938C473.122 5.16146 473.016 5.1875 472.969 5.1875C472.885 5.1875 472.812 5.15625 472.75 5.09375C472.693 5.03125 472.664 4.95312 472.664 4.85938C472.664 4.77083 472.69 4.70052 472.742 4.64844C472.815 4.57031 473.109 4.46354 473.625 4.32812C474.438 4.10938 475.052 4 475.469 4C476.297 4 476.943 4.20573 477.406 4.61719C477.87 5.02344 478.102 5.48438 478.102 6V10.3438H478.977C479.138 10.3438 479.253 10.375 479.32 10.4375C479.388 10.4948 479.422 10.5729 479.422 10.6719C479.422 10.7656 479.388 10.8438 479.32 10.9062C479.253 10.9688 479.138 11 478.977 11H477.438ZM477.438 7.73438C477.13 7.64583 476.805 7.58073 476.461 7.53906C476.117 7.4974 475.755 7.47656 475.375 7.47656C474.422 7.47656 473.677 7.68229 473.141 8.09375C472.734 8.40104 472.531 8.76823 472.531 9.19531C472.531 9.59115 472.685 9.92448 472.992 10.1953C473.305 10.4661 473.758 10.6016 474.352 10.6016C474.919 10.6016 475.445 10.4896 475.93 10.2656C476.419 10.0365 476.922 9.67448 477.438 9.17969V7.73438ZM487.289 7.77344H483.031V10.3438H483.773C484.065 10.3438 484.211 10.4531 484.211 10.6719C484.211 10.8906 484.065 11 483.773 11H481.633C481.341 11 481.195 10.8906 481.195 10.6719C481.195 10.4531 481.341 10.3438 481.633 10.3438H482.375V4.89844H481.867C481.576 4.89844 481.43 4.78906 481.43 4.57031C481.43 4.34635 481.576 4.23438 481.867 4.23438H483.539C483.831 4.23438 483.977 4.34635 483.977 4.57031C483.977 4.78906 483.831 4.89844 483.539 4.89844H483.031V7.10938H487.289V4.89844H486.789C486.492 4.89844 486.344 4.78906 486.344 4.57031C486.344 4.34635 486.492 4.23438 486.789 4.23438H488.453C488.745 4.23438 488.891 4.34635 488.891 4.57031C488.891 4.78906 488.745 4.89844 488.453 4.89844H487.945V10.3438H488.688C488.979 10.3438 489.125 10.4531 489.125 10.6719C489.125 10.8906 488.979 11 488.688 11H486.547C486.255 11 486.109 10.8906 486.109 10.6719C486.109 10.4531 486.255 10.3438 486.547 10.3438H487.289V7.77344ZM492.422 11H490.859C490.568 11 490.422 10.8906 490.422 10.6719C490.422 10.4531 490.568 10.3438 490.859 10.3438H491.648V4.89844H490.859C490.568 4.89844 490.422 4.78906 490.422 4.57031C490.422 4.34635 490.568 4.23438 490.859 4.23438H493.188C493.479 4.23438 493.625 4.34635 493.625 4.57031C493.625 4.78906 493.479 4.89844 493.188 4.89844H492.305V10.0547L497.031 4.23438H498.68C498.971 4.23438 499.117 4.34635 499.117 4.57031C499.117 4.78906 498.971 4.89844 498.68 4.89844H497.797V10.3438H498.68C498.971 10.3438 499.117 10.4531 499.117 10.6719C499.117 10.8906 498.971 11 498.68 11H496.258C495.966 11 495.82 10.8906 495.82 10.6719C495.82 10.4531 495.966 10.3438 496.258 10.3438H497.141V5.19531L492.422 11ZM506.336 8.28906H504.445C502.94 8.90365 502.083 9.80729 501.875 11H500.969C500.724 11 500.602 10.8906 500.602 10.6719C500.602 10.4531 500.724 10.3438 500.969 10.3438H501.367C501.706 9.375 502.438 8.64323 503.562 8.14844C502.354 7.89323 501.75 7.22656 501.75 6.14844C501.75 5.58594 501.938 5.1276 502.312 4.77344C502.693 4.41406 503.281 4.23438 504.078 4.23438H507.703C507.948 4.23438 508.07 4.34635 508.07 4.57031C508.07 4.78906 507.948 4.89844 507.703 4.89844H507V10.3438H507.703C507.948 10.3438 508.07 10.4531 508.07 10.6719C508.07 10.8906 507.948 11 507.703 11H505.375C505.13 11 505.008 10.8906 505.008 10.6719C505.008 10.4531 505.13 10.3438 505.375 10.3438H506.336V8.28906ZM506.336 7.63281V4.89844H504.219C503.016 4.89844 502.414 5.32292 502.414 6.17188C502.414 6.66146 502.576 7.02865 502.898 7.27344C503.221 7.51302 503.831 7.63281 504.727 7.63281H506.336ZM526.336 4.89844V4.67969C526.336 4.51823 526.367 4.40365 526.43 4.33594C526.492 4.26823 526.57 4.23438 526.664 4.23438C526.763 4.23438 526.844 4.26823 526.906 4.33594C526.969 4.40365 527 4.51823 527 4.67969V6.16406C526.995 6.32552 526.961 6.4401 526.898 6.50781C526.841 6.57552 526.763 6.60938 526.664 6.60938C526.576 6.60938 526.5 6.58073 526.438 6.52344C526.38 6.46094 526.346 6.35938 526.336 6.21875C526.305 5.84896 526.06 5.4974 525.602 5.16406C525.148 4.83073 524.536 4.66406 523.766 4.66406C522.792 4.66406 522.052 4.96875 521.547 5.57812C521.042 6.1875 520.789 6.88542 520.789 7.67188C520.789 8.52083 521.068 9.22135 521.625 9.77344C522.182 10.3255 522.904 10.6016 523.789 10.6016C524.299 10.6016 524.818 10.5078 525.344 10.3203C525.875 10.1328 526.354 9.83073 526.781 9.41406C526.891 9.3099 526.987 9.25781 527.07 9.25781C527.159 9.25781 527.232 9.28906 527.289 9.35156C527.352 9.40885 527.383 9.48177 527.383 9.57031C527.383 9.79427 527.12 10.0781 526.594 10.4219C525.745 10.9792 524.799 11.2578 523.758 11.2578C522.701 11.2578 521.831 10.9219 521.148 10.25C520.471 9.57292 520.133 8.71615 520.133 7.67969C520.133 6.6224 520.479 5.74479 521.172 5.04688C521.87 4.34896 522.747 4 523.805 4C524.81 4 525.654 4.29948 526.336 4.89844ZM543.141 1.0625V10.3438H545.391C545.547 10.3438 545.659 10.375 545.727 10.4375C545.794 10.4948 545.828 10.5729 545.828 10.6719C545.828 10.7656 545.794 10.8438 545.727 10.9062C545.659 10.9688 545.547 11 545.391 11H540.234C540.078 11 539.966 10.9688 539.898 10.9062C539.831 10.8438 539.797 10.7656 539.797 10.6719C539.797 10.5729 539.831 10.4948 539.898 10.4375C539.966 10.375 540.078 10.3438 540.234 10.3438H542.484V1.96875L540.344 2.64062C540.24 2.67188 540.164 2.6875 540.117 2.6875C540.039 2.6875 539.966 2.65625 539.898 2.59375C539.836 2.52604 539.805 2.44792 539.805 2.35938C539.805 2.28125 539.831 2.20833 539.883 2.14062C539.924 2.09896 540.01 2.05469 540.141 2.00781L543.141 1.0625ZM555.117 5.45312C554.779 6.05208 554.375 6.5026 553.906 6.80469C553.443 7.10677 552.966 7.25781 552.477 7.25781C552.023 7.25781 551.583 7.1276 551.156 6.86719C550.734 6.60677 550.398 6.22656 550.148 5.72656C549.898 5.22135 549.773 4.69271 549.773 4.14062C549.773 3.33854 550.021 2.60938 550.516 1.95312C551.016 1.29167 551.682 0.960938 552.516 0.960938C553.109 0.960938 553.651 1.14583 554.141 1.51562C554.63 1.88542 555.01 2.42188 555.281 3.125C555.63 4.02604 555.805 5.07292 555.805 6.26562C555.805 7.19271 555.656 7.96354 555.359 8.57812C555.161 8.99479 554.87 9.39844 554.484 9.78906C554.104 10.1797 553.674 10.4974 553.195 10.7422C552.539 11.0703 551.857 11.2344 551.148 11.2344C550.68 11.2344 550.297 11.1458 550 10.9688C549.865 10.8854 549.797 10.7812 549.797 10.6562C549.797 10.5677 549.828 10.4948 549.891 10.4375C549.953 10.375 550.029 10.3438 550.117 10.3438C550.18 10.3438 550.271 10.3724 550.391 10.4297C550.594 10.5286 550.828 10.5781 551.094 10.5781C552.203 10.5781 553.156 10.1797 553.953 9.38281C554.75 8.58073 555.148 7.57812 555.148 6.375C555.148 6.15625 555.138 5.84896 555.117 5.45312ZM554.992 4.35938C554.716 3.30208 554.372 2.58333 553.961 2.20312C553.555 1.81771 553.078 1.625 552.531 1.625C551.974 1.625 551.484 1.85938 551.062 2.32812C550.641 2.79688 550.43 3.39844 550.43 4.13281C550.43 4.84635 550.641 5.4375 551.062 5.90625C551.484 6.36979 551.961 6.60156 552.492 6.60156C552.799 6.60156 553.102 6.51823 553.398 6.35156C553.701 6.1849 553.984 5.9349 554.25 5.60156C554.422 5.3776 554.669 4.96354 554.992 4.35938ZM564.727 5.45312C564.388 6.05208 563.984 6.5026 563.516 6.80469C563.052 7.10677 562.576 7.25781 562.086 7.25781C561.633 7.25781 561.193 7.1276 560.766 6.86719C560.344 6.60677 560.008 6.22656 559.758 5.72656C559.508 5.22135 559.383 4.69271 559.383 4.14062C559.383 3.33854 559.63 2.60938 560.125 1.95312C560.625 1.29167 561.292 0.960938 562.125 0.960938C562.719 0.960938 563.26 1.14583 563.75 1.51562C564.24 1.88542 564.62 2.42188 564.891 3.125C565.24 4.02604 565.414 5.07292 565.414 6.26562C565.414 7.19271 565.266 7.96354 564.969 8.57812C564.771 8.99479 564.479 9.39844 564.094 9.78906C563.714 10.1797 563.284 10.4974 562.805 10.7422C562.148 11.0703 561.466 11.2344 560.758 11.2344C560.289 11.2344 559.906 11.1458 559.609 10.9688C559.474 10.8854 559.406 10.7812 559.406 10.6562C559.406 10.5677 559.438 10.4948 559.5 10.4375C559.562 10.375 559.638 10.3438 559.727 10.3438C559.789 10.3438 559.88 10.3724 560 10.4297C560.203 10.5286 560.438 10.5781 560.703 10.5781C561.812 10.5781 562.766 10.1797 563.562 9.38281C564.359 8.58073 564.758 7.57812 564.758 6.375C564.758 6.15625 564.747 5.84896 564.727 5.45312ZM564.602 4.35938C564.326 3.30208 563.982 2.58333 563.57 2.20312C563.164 1.81771 562.688 1.625 562.141 1.625C561.583 1.625 561.094 1.85938 560.672 2.32812C560.25 2.79688 560.039 3.39844 560.039 4.13281C560.039 4.84635 560.25 5.4375 560.672 5.90625C561.094 6.36979 561.57 6.60156 562.102 6.60156C562.409 6.60156 562.711 6.51823 563.008 6.35156C563.31 6.1849 563.594 5.9349 563.859 5.60156C564.031 5.3776 564.279 4.96354 564.602 4.35938ZM574.336 5.45312C573.997 6.05208 573.594 6.5026 573.125 6.80469C572.661 7.10677 572.185 7.25781 571.695 7.25781C571.242 7.25781 570.802 7.1276 570.375 6.86719C569.953 6.60677 569.617 6.22656 569.367 5.72656C569.117 5.22135 568.992 4.69271 568.992 4.14062C568.992 3.33854 569.24 2.60938 569.734 1.95312C570.234 1.29167 570.901 0.960938 571.734 0.960938C572.328 0.960938 572.87 1.14583 573.359 1.51562C573.849 1.88542 574.229 2.42188 574.5 3.125C574.849 4.02604 575.023 5.07292 575.023 6.26562C575.023 7.19271 574.875 7.96354 574.578 8.57812C574.38 8.99479 574.089 9.39844 573.703 9.78906C573.323 10.1797 572.893 10.4974 572.414 10.7422C571.758 11.0703 571.076 11.2344 570.367 11.2344C569.898 11.2344 569.516 11.1458 569.219 10.9688C569.083 10.8854 569.016 10.7812 569.016 10.6562C569.016 10.5677 569.047 10.4948 569.109 10.4375C569.172 10.375 569.247 10.3438 569.336 10.3438C569.398 10.3438 569.49 10.3724 569.609 10.4297C569.812 10.5286 570.047 10.5781 570.312 10.5781C571.422 10.5781 572.375 10.1797 573.172 9.38281C573.969 8.58073 574.367 7.57812 574.367 6.375C574.367 6.15625 574.357 5.84896 574.336 5.45312ZM574.211 4.35938C573.935 3.30208 573.591 2.58333 573.18 2.20312C572.773 1.81771 572.297 1.625 571.75 1.625C571.193 1.625 570.703 1.85938 570.281 2.32812C569.859 2.79688 569.648 3.39844 569.648 4.13281C569.648 4.84635 569.859 5.4375 570.281 5.90625C570.703 6.36979 571.18 6.60156 571.711 6.60156C572.018 6.60156 572.32 6.51823 572.617 6.35156C572.919 6.1849 573.203 5.9349 573.469 5.60156C573.641 5.3776 573.888 4.96354 574.211 4.35938ZM589.914 10.3438H591.477C591.768 10.3438 591.914 10.4531 591.914 10.6719C591.914 10.8906 591.768 11 591.477 11H587.688C587.396 11 587.25 10.8906 587.25 10.6719C587.25 10.4531 587.396 10.3438 587.688 10.3438H589.25V4.89844H587.688C587.396 4.89844 587.25 4.78906 587.25 4.57031C587.25 4.34635 587.396 4.23438 587.688 4.23438H594.562V7.50781C594.562 7.79948 594.451 7.94531 594.227 7.94531C594.008 7.94531 593.898 7.79948 593.898 7.50781V4.89844H589.914V10.3438ZM604.141 7.63281C604.141 8.63281 603.781 9.48698 603.062 10.1953C602.349 10.9036 601.487 11.2578 600.477 11.2578C599.456 11.2578 598.589 10.9036 597.875 10.1953C597.161 9.48177 596.805 8.6276 596.805 7.63281C596.805 6.63281 597.161 5.77865 597.875 5.07031C598.589 4.35677 599.456 4 600.477 4C601.487 4 602.349 4.35417 603.062 5.0625C603.781 5.77083 604.141 6.6276 604.141 7.63281ZM603.477 7.63281C603.477 6.8099 603.182 6.10938 602.594 5.53125C602.01 4.95312 601.302 4.66406 600.469 4.66406C599.635 4.66406 598.924 4.95573 598.336 5.53906C597.753 6.11719 597.461 6.8151 597.461 7.63281C597.461 8.44531 597.753 9.14323 598.336 9.72656C598.924 10.3099 599.635 10.6016 600.469 10.6016C601.302 10.6016 602.01 10.3125 602.594 9.73438C603.182 9.15104 603.477 8.45052 603.477 7.63281ZM613.523 11H606.641V12.1562C606.641 12.4844 606.529 12.6484 606.305 12.6484C606.091 12.6484 605.984 12.474 605.984 12.125V10.8828C605.984 10.612 606.016 10.4557 606.078 10.4141C606.146 10.3672 606.25 10.3385 606.391 10.3281C606.766 10.3021 607.201 10.1198 607.695 9.78125C608.19 9.4375 608.438 8.73958 608.438 7.6875V4.89844H607.578C607.208 4.89844 607.023 4.78906 607.023 4.57031C607.023 4.34635 607.208 4.23438 607.578 4.23438H613.633C613.997 4.23438 614.18 4.34635 614.18 4.57031C614.18 4.78906 613.997 4.89844 613.633 4.89844H612.984V10.3438H613.633C613.867 10.3438 614.016 10.375 614.078 10.4375C614.146 10.4948 614.18 10.6432 614.18 10.8828V12.125C614.18 12.474 614.073 12.6484 613.859 12.6484C613.635 12.6484 613.523 12.4844 613.523 12.1562V11ZM609.094 4.89844V7.6875C609.094 8.97396 608.724 9.85938 607.984 10.3438H612.32V4.89844H609.094ZM621.578 11V10.0547C620.625 10.8568 619.607 11.2578 618.523 11.2578C617.737 11.2578 617.122 11.0599 616.68 10.6641C616.237 10.263 616.016 9.77344 616.016 9.19531C616.016 8.5599 616.307 8.00521 616.891 7.53125C617.474 7.05729 618.326 6.82031 619.445 6.82031C619.747 6.82031 620.076 6.84115 620.43 6.88281C620.784 6.91927 621.167 6.97917 621.578 7.0625V6C621.578 5.64062 621.411 5.32812 621.078 5.0625C620.745 4.79688 620.245 4.66406 619.578 4.66406C619.068 4.66406 618.352 4.8125 617.43 5.10938C617.263 5.16146 617.156 5.1875 617.109 5.1875C617.026 5.1875 616.953 5.15625 616.891 5.09375C616.833 5.03125 616.805 4.95312 616.805 4.85938C616.805 4.77083 616.831 4.70052 616.883 4.64844C616.956 4.57031 617.25 4.46354 617.766 4.32812C618.578 4.10938 619.193 4 619.609 4C620.438 4 621.083 4.20573 621.547 4.61719C622.01 5.02344 622.242 5.48438 622.242 6V10.3438H623.117C623.279 10.3438 623.393 10.375 623.461 10.4375C623.529 10.4948 623.562 10.5729 623.562 10.6719C623.562 10.7656 623.529 10.8438 623.461 10.9062C623.393 10.9688 623.279 11 623.117 11H621.578ZM621.578 7.73438C621.271 7.64583 620.945 7.58073 620.602 7.53906C620.258 7.4974 619.896 7.47656 619.516 7.47656C618.562 7.47656 617.818 7.68229 617.281 8.09375C616.875 8.40104 616.672 8.76823 616.672 9.19531C616.672 9.59115 616.826 9.92448 617.133 10.1953C617.445 10.4661 617.898 10.6016 618.492 10.6016C619.06 10.6016 619.586 10.4896 620.07 10.2656C620.56 10.0365 621.062 9.67448 621.578 9.17969V7.73438ZM629.164 9.11719H629.445C629.737 9.11719 629.987 9.22135 630.195 9.42969C630.404 9.63281 630.508 9.88021 630.508 10.1719C630.508 10.474 630.401 10.7266 630.188 10.9297C629.979 11.1328 629.732 11.2344 629.445 11.2344H629.164C628.872 11.2344 628.622 11.1328 628.414 10.9297C628.206 10.7214 628.102 10.4714 628.102 10.1797C628.102 9.8776 628.206 9.625 628.414 9.42188C628.628 9.21875 628.878 9.11719 629.164 9.11719Z" fill="#393939"/>
</svg>
