<svg width="138" height="28" viewBox="0 0 138 28" fill="none" xmlns="http://www.w3.org/2000/svg">
<path d="M19.6838 0.705583H23.468V27.1953H19.6838V0.705583ZM4.47109 27.1953H0.686841V0.705583H4.47109V27.1953ZM20.0243 15.3885H4.09266V12.0962H20.0243V15.3885ZM43.6499 27.4981C41.6316 27.4981 39.7521 27.1575 38.0113 26.4763C36.2958 25.7951 34.8073 24.8491 33.5459 23.6381C32.2845 22.4019 31.3006 20.9639 30.5942 19.3241C29.8878 17.6842 29.5346 15.893 29.5346 13.9504C29.5346 12.0079 29.8878 10.2167 30.5942 8.57682C31.3006 6.93698 32.2845 5.51158 33.5459 4.30062C34.8073 3.06443 36.2958 2.10575 38.0113 1.42459C39.7269 0.743426 41.6064 0.402845 43.6499 0.402845C45.6681 0.402845 47.5224 0.743426 49.2127 1.42459C50.9282 2.08053 52.4167 3.02659 53.6781 4.26278C54.9648 5.47373 55.9487 6.89913 56.6298 8.53897C57.3362 10.1788 57.6894 11.9826 57.6894 13.9504C57.6894 15.9183 57.3362 17.7221 56.6298 19.3619C55.9487 21.0018 54.9648 22.4398 53.6781 23.676C52.4167 24.8869 50.9282 25.833 49.2127 26.5141C47.5224 27.1701 45.6681 27.4981 43.6499 27.4981ZM43.6499 24.1301C45.1131 24.1301 46.4628 23.8778 47.699 23.3732C48.9604 22.8687 50.0452 22.1623 50.9535 21.254C51.8869 20.3206 52.6059 19.2358 53.1105 17.9996C53.6403 16.7634 53.9052 15.4137 53.9052 13.9504C53.9052 12.4872 53.6403 11.1375 53.1105 9.9013C52.6059 8.66512 51.8869 7.59291 50.9535 6.68469C50.0452 5.75125 48.9604 5.03224 47.699 4.52767C46.4628 4.02311 45.1131 3.77082 43.6499 3.77082C42.1614 3.77082 40.7865 4.02311 39.525 4.52767C38.2889 5.03224 37.204 5.75125 36.2706 6.68469C35.3371 7.59291 34.6055 8.66512 34.0757 9.9013C33.5712 11.1375 33.3189 12.4872 33.3189 13.9504C33.3189 15.4137 33.5712 16.7634 34.0757 17.9996C34.6055 19.2358 35.3371 20.3206 36.2706 21.254C37.204 22.1623 38.2889 22.8687 39.525 23.3732C40.7865 23.8778 42.1614 24.1301 43.6499 24.1301ZM66.9656 15.2749V12.1719H81.1565V15.2749H66.9656ZM70.3714 0.402845C72.2887 0.402845 74.0547 0.743426 75.6693 1.42459C77.2839 2.08053 78.6841 3.02659 79.8698 4.26278C81.0808 5.47373 82.0142 6.89913 82.6702 8.53897C83.3513 10.1788 83.6919 11.9826 83.6919 13.9504C83.6919 15.9183 83.3513 17.7221 82.6702 19.3619C82.0142 21.0018 81.0808 22.4398 79.8698 23.676C78.6841 24.8869 77.2839 25.833 75.6693 26.5141C74.0547 27.1701 72.2887 27.4981 70.3714 27.4981C68.2522 27.4981 66.297 27.1449 64.5058 26.4385C62.7398 25.7321 61.2513 24.6977 60.0404 23.3354L62.4245 20.9513C63.4841 22.0361 64.6572 22.8308 65.9438 23.3354C67.2557 23.8399 68.6685 24.0922 70.1822 24.0922C71.5697 24.0922 72.8564 23.8399 74.0421 23.3354C75.2278 22.8308 76.2496 22.137 77.1073 21.254C77.9903 20.3458 78.6715 19.2736 79.1508 18.0374C79.6302 16.776 79.8698 15.4137 79.8698 13.9504C79.8698 12.4872 79.6302 11.1375 79.1508 9.9013C78.6715 8.63989 77.9903 7.56768 77.1073 6.68469C76.2496 5.77647 75.2278 5.07008 74.0421 4.56551C72.8564 4.06095 71.5697 3.80867 70.1822 3.80867C68.6685 3.80867 67.2557 4.06095 65.9438 4.56551C64.6572 5.07008 63.4841 5.86477 62.4245 6.94959L60.0404 4.56551C61.2513 3.20319 62.7398 2.16883 64.5058 1.46243C66.297 0.756041 68.2522 0.402845 70.3714 0.402845ZM107.647 27.1953L98.0354 14.1397L101.101 12.2475L111.961 27.1953H107.647ZM89.8236 27.1953V0.705583H93.5322V27.1953H89.8236ZM92.3969 15.5398V12.2097H100.987V15.5398H92.3969ZM101.441 14.3667L97.9597 13.8369L107.458 0.705583H111.507L101.441 14.3667ZM127.611 27.4981C125.593 27.4981 123.726 27.1701 122.01 26.5141C120.32 25.833 118.844 24.8869 117.583 23.676C116.347 22.4398 115.375 21.0018 114.669 19.3619C113.963 17.7221 113.609 15.9183 113.609 13.9504C113.609 11.9826 113.963 10.1788 114.669 8.53897C115.375 6.89913 116.359 5.47373 117.621 4.26278C118.882 3.02659 120.358 2.08053 122.048 1.42459C123.764 0.743426 125.631 0.402845 127.649 0.402845C129.692 0.402845 131.572 0.756041 133.287 1.46243C135.028 2.1436 136.504 3.16534 137.715 4.52767L135.255 6.91175C134.246 5.85216 133.111 5.07008 131.849 4.56551C130.588 4.03572 129.238 3.77082 127.8 3.77082C126.312 3.77082 124.924 4.02311 123.638 4.52767C122.376 5.03224 121.279 5.73863 120.345 6.64685C119.412 7.55507 118.68 8.63989 118.15 9.9013C117.646 11.1375 117.394 12.4872 117.394 13.9504C117.394 15.4137 117.646 16.776 118.15 18.0374C118.68 19.2736 119.412 20.3458 120.345 21.254C121.279 22.1623 122.376 22.8687 123.638 23.3732C124.924 23.8778 126.312 24.1301 127.8 24.1301C129.238 24.1301 130.588 23.8778 131.849 23.3732C133.111 22.8434 134.246 22.0361 135.255 20.9513L137.715 23.3354C136.504 24.6977 135.028 25.7321 133.287 26.4385C131.572 27.1449 129.68 27.4981 127.611 27.4981Z" fill="#393939"/>
</svg>
