<svg width="22" height="23" viewBox="0 0 22 23" fill="none" xmlns="http://www.w3.org/2000/svg">
<path d="M21.0001 16.4201V19.4201C21.0012 19.6986 20.9441 19.9743 20.8326 20.2294C20.721 20.4846 20.5574 20.7137 20.3521 20.902C20.1469 21.0902 19.9046 21.2336 19.6408 21.3228C19.377 21.412 19.0974 21.4452 18.8201 21.4201C15.7429 21.0857 12.7871 20.0342 10.1901 18.3501C7.77388 16.8148 5.72539 14.7663 4.19006 12.3501C2.50003 9.7413 1.4483 6.77109 1.12006 3.6801C1.09507 3.40356 1.12793 3.12486 1.21656 2.86172C1.30518 2.59859 1.44763 2.35679 1.63482 2.15172C1.82202 1.94665 2.04986 1.78281 2.30385 1.67062C2.55783 1.55843 2.8324 1.50036 3.11006 1.5001H6.11006C6.59536 1.49532 7.06585 1.66718 7.43382 1.98363C7.80179 2.30008 8.04213 2.73954 8.11005 3.2201C8.23668 4.18016 8.47151 5.12282 8.81006 6.0301C8.9446 6.38802 8.97372 6.77701 8.89396 7.15098C8.81421 7.52494 8.62892 7.86821 8.36005 8.1401L7.09006 9.4101C8.51361 11.9136 10.5865 13.9865 13.0901 15.4101L14.3601 14.1401C14.6319 13.8712 14.9752 13.6859 15.3492 13.6062C15.7231 13.5264 16.1121 13.5556 16.4701 13.6901C17.3773 14.0286 18.32 14.2635 19.2801 14.3901C19.7658 14.4586 20.2095 14.7033 20.5266 15.0776C20.8437 15.4519 21.0122 15.9297 21.0001 16.4201Z" stroke="black" stroke-width="2" stroke-linecap="round" stroke-linejoin="round"/>
</svg>
