<svg width="16" height="14" viewBox="0 0 16 14" fill="none" xmlns="http://www.w3.org/2000/svg">
<path d="M1.53568 4.58983C1.73808 4.73265 2.34818 5.15684 3.36602 5.86216C4.38389 6.56749 5.16365 7.11057 5.70532 7.49145C5.76484 7.53319 5.89127 7.62395 6.08469 7.76383C6.27815 7.90381 6.43889 8.01692 6.5668 8.1032C6.6948 8.18945 6.84953 8.28621 7.03117 8.39332C7.21274 8.50034 7.38389 8.58083 7.5446 8.63412C7.70535 8.68785 7.85414 8.71446 7.99102 8.71446H8H8.00901C8.14589 8.71446 8.29475 8.68782 8.45549 8.63412C8.61614 8.58083 8.78745 8.50024 8.96886 8.39332C9.15037 8.28609 9.30511 8.18942 9.43311 8.1032C9.56111 8.01692 9.72173 7.90381 9.91524 7.76383C10.1086 7.62382 10.2352 7.53319 10.2947 7.49145C10.8423 7.11057 12.2352 6.14327 14.4733 4.58964C14.9078 4.2862 15.2708 3.92006 15.5624 3.49146C15.8542 3.06306 16 2.61364 16 2.14345C16 1.75054 15.8586 1.4142 15.5758 1.13446C15.293 0.854665 14.9582 0.714844 14.5714 0.714844H1.42851C0.970209 0.714844 0.617514 0.869582 0.370489 1.17906C0.123496 1.4886 0 1.8755 0 2.33975C0 2.71474 0.163745 3.1211 0.491077 3.55858C0.818379 3.99608 1.1667 4.33986 1.53568 4.58983Z" fill="#CDA177"/>
<path d="M15.107 5.54531C13.1548 6.86662 11.6725 7.89349 10.6607 8.62571C10.3215 8.87561 10.0462 9.07069 9.83486 9.21048C9.62348 9.35037 9.34237 9.49322 8.99112 9.63898C8.63999 9.78496 8.31275 9.85773 8.00912 9.85773H8.00002H7.99104C7.68748 9.85773 7.36005 9.78496 7.00892 9.63898C6.65779 9.49322 6.37649 9.35037 6.16518 9.21048C5.95393 9.07069 5.67861 8.87561 5.33936 8.62571C4.53574 8.03647 3.0566 7.00953 0.901876 5.54531C0.562504 5.31927 0.26191 5.06017 0 4.76855V11.8576C0 12.2507 0.139821 12.5869 0.419618 12.8666C0.699354 13.1465 1.03572 13.2864 1.4286 13.2864H14.5715C14.9643 13.2864 15.3006 13.1465 15.5804 12.8666C15.8602 12.5868 16 12.2508 16 11.8576V4.76855C15.744 5.05414 15.4465 5.31323 15.107 5.54531Z" fill="#CDA177"/>
</svg>
