<svg width="16" height="16" viewBox="0 0 16 16" fill="none" xmlns="http://www.w3.org/2000/svg">
<path d="M6.62534 9.37386C5.09817 7.84669 4.75334 6.31951 4.67555 5.70765C4.65381 5.53847 4.71203 5.36881 4.83306 5.24862L6.06892 4.01331C6.25072 3.83162 6.28298 3.54847 6.14672 3.33055L4.17899 0.2751C4.02824 0.0337895 3.7187 -0.0533019 3.46424 0.0739968L0.305339 1.56172C0.0995625 1.66305 -0.0214727 1.88168 0.00189102 2.10986C0.167408 3.68227 0.852925 7.54765 4.65155 11.3465C8.45017 15.1454 12.315 15.8307 13.8882 15.9962C14.1164 16.0196 14.335 15.8985 14.4364 15.6928L15.9241 12.5339C16.0509 12.2799 15.9644 11.9712 15.7241 11.8202L12.6686 9.85303C12.4508 9.71662 12.1677 9.74866 11.9859 9.93027L10.7506 11.1661C10.6304 11.2872 10.4607 11.3454 10.2915 11.3237C9.67968 11.2459 8.15251 10.901 6.62534 9.37386Z" fill="#CDA177"/>
<path d="M12.6896 8.55092C12.3849 8.55092 12.1379 8.3039 12.1379 7.99919C12.1353 5.71495 10.2842 3.86385 7.99997 3.86126C7.69526 3.86126 7.44824 3.61425 7.44824 3.30954C7.44824 3.00483 7.69526 2.75781 7.99997 2.75781C10.8934 2.76101 13.2382 5.10578 13.2413 7.99919C13.2413 8.3039 12.9943 8.55092 12.6896 8.55092Z" fill="#CDA177"/>
<path d="M15.4482 8.55172C15.1435 8.55172 14.8965 8.30471 14.8965 8C14.8923 4.1929 11.8071 1.10771 7.99997 1.10345C7.69526 1.10345 7.44824 0.856433 7.44824 0.551724C7.44824 0.247015 7.69526 0 7.99997 0C12.4162 0.00486507 15.9951 3.58374 16 8C16 8.14633 15.9418 8.28666 15.8384 8.39013C15.7349 8.4936 15.5946 8.55172 15.4482 8.55172Z" fill="#CDA177"/>
</svg>
