<svg width="48" height="63" viewBox="0 0 48 63" fill="none" xmlns="http://www.w3.org/2000/svg">
<path d="M43.2559 12.2204C43.2214 12.0551 43.132 11.9063 43.0024 11.798L29.2274 0.299269C29.0982 0.19141 28.9365 0.130138 28.7683 0.125309C28.6 0.12048 28.4351 0.172374 28.2999 0.272644L16.6968 8.88039L5.28726 13.7198C5.16955 13.7697 5.06656 13.8489 4.98806 13.9498C4.90956 14.0507 4.85817 14.17 4.83876 14.2964L0.698636 41.2421C0.682539 41.3469 0.688843 41.454 0.717136 41.5561L4.81926 56.3757C4.84723 56.4768 4.89612 56.5709 4.96276 56.652C5.0294 56.7331 5.11231 56.7993 5.20614 56.8463L17.0873 62.7963C17.2162 62.861 17.3612 62.887 17.5046 62.8713L37.9873 60.6318C38.1015 60.6193 38.2113 60.5808 38.3082 60.5191C38.4052 60.4575 38.4866 60.3744 38.5464 60.2763L45.0823 49.5404C45.138 49.449 45.1734 49.3467 45.1861 49.2404L47.3041 31.78C47.314 31.6987 47.3104 31.6164 47.2938 31.5363L43.2559 12.2204ZM45.4926 30.2515L36.9129 25.5579L42.2351 14.6681L45.4926 30.2515ZM29.4934 2.47502L41.5888 12.5721L35.8714 24.2085L29.4704 12.1419L29.4934 2.47502ZM43.2498 48.0774L20.9521 42.4731L15.4463 35.4606L35.4655 26.859L43.2498 48.0774ZM28.4924 13.5346L34.8229 25.5021L15.0623 33.9925L15.5383 24.4131L28.4924 13.5346ZM27.9936 2.36789L27.9723 11.377L18.8098 9.18114L27.9936 2.36789ZM17.1373 10.323L27.0998 12.7105L14.8623 23.0048L6.87476 14.676L17.1373 10.323ZM6.08976 16.0304L14.0414 24.325L13.527 34.675L2.39801 40.0594L6.08976 16.0304ZM2.32964 41.7588L14.0373 36.0944L19.7606 43.3841L19.3493 53.8264L6.09364 55.3569L2.32964 41.7588ZM17.5613 61.3554L8.12839 56.632L20.0049 55.2607L34.168 59.5403L17.5613 61.3554ZM37.567 59L20.8454 53.9477L21.2336 44.0905L43.2719 49.6297L37.567 59ZM44.0724 45.9658L37.2886 27.4729L45.7539 32.1038L44.0724 45.9658Z" fill="#393939"/>
<path d="M7.3917 19.7376C7.19551 19.7051 6.99444 19.7519 6.83269 19.8676C6.67095 19.9833 6.56178 20.1585 6.52919 20.3546L6.45419 20.8046C6.42167 21.0008 6.46839 21.2019 6.58406 21.3636C6.69974 21.5253 6.87492 21.6345 7.07107 21.6671C7.11201 21.6739 7.15345 21.6774 7.19495 21.6774C7.37243 21.6772 7.54409 21.614 7.6794 21.4992C7.81471 21.3843 7.90491 21.2252 7.93395 21.0501L8.00895 20.6001C8.04147 20.4039 7.9947 20.2028 7.87895 20.0411C7.76319 19.8793 7.58792 19.7702 7.3917 19.7376Z" fill="#393939"/>
<path d="M6.92028 22.5745C6.72407 22.542 6.52298 22.5888 6.36124 22.7045C6.19949 22.8202 6.09034 22.9955 6.05778 23.1917L4.66903 31.5577C4.63652 31.7539 4.68325 31.9549 4.79895 32.1167C4.91465 32.2784 5.08986 32.3876 5.28603 32.4202C5.32689 32.427 5.36824 32.4304 5.40966 32.4304C5.58714 32.4302 5.75879 32.3671 5.8941 32.2522C6.02941 32.1374 6.11961 31.9783 6.14866 31.8032L7.53753 23.4377C7.55372 23.3405 7.55059 23.241 7.52832 23.145C7.50606 23.049 7.4651 22.9584 7.40777 22.8782C7.35045 22.798 7.27789 22.73 7.19424 22.6779C7.11059 22.6258 7.0175 22.5907 6.92028 22.5745Z" fill="#393939"/>
</svg>
